<svg width="459" height="420" viewBox="0 0 459 420" fill="none" xmlns="http://www.w3.org/2000/svg">
<path d="M416.012 66.4332C443.172 128.143 430.742 194.943 392.952 250.773C355.162 306.603 292.272 342.773 226.152 355.903C178.952 365.303 128.152 363.383 85.052 342.033C41.952 320.683 8.01197 277.703 5.41197 229.643C4.41197 211.493 8.29197 192.223 20.412 178.643C39.752 156.993 72.772 156.233 101.782 157.133C130.792 158.033 163.782 157.343 183.222 135.793C198.162 119.223 200.362 95.2032 208.222 74.3332C221.602 38.8732 253.882 11.1732 291.012 3.33316C327.272 -4.32684 367.012 7.21316 393.602 32.9732C394.742 34.0732 395.932 35.1232 397.132 36.1632C400.272 38.9232 410.842 54.7032 416.012 66.4332Z" fill="#F5F5F5"/>
<path d="M410.767 215.784C436.854 189.697 436.854 147.402 410.767 121.315C384.68 95.2279 342.384 95.228 316.297 121.315C290.21 147.402 290.21 189.697 316.297 215.784C342.384 241.871 384.68 241.871 410.767 215.784Z" fill="#E0E0E0"/>
<path d="M281.012 345.245C279.432 385.415 249.842 418.665 209.642 419.445C190.338 419.82 171.676 412.512 157.761 399.127C143.846 385.743 135.817 367.379 135.442 348.075C134.662 307.875 166.722 270.785 206.812 273.875C249.552 277.135 282.442 308.585 281.012 345.245Z" fill="#E0E0E0"/>
<path d="M144.483 153.143C171.082 126.544 171.082 83.4196 144.483 56.821C117.885 30.2223 74.7597 30.2223 48.161 56.821C21.5624 83.4196 21.5624 126.544 48.161 153.143C74.7597 179.742 117.885 179.742 144.483 153.143Z" fill="#E0E0E0"/>
<path d="M354.911 184.295C355.971 185.295 330.161 214.975 297.271 250.635C264.381 286.295 236.851 314.425 235.791 313.445C234.731 312.465 260.541 282.775 293.441 247.105C326.341 211.435 353.851 183.315 354.911 184.295Z" fill="#E0E0E0"/>
<path d="M341.222 135.855C340.912 137.265 295.432 128.555 239.642 116.415C183.852 104.275 138.862 93.2954 139.162 91.8954C139.462 90.4954 184.942 99.1854 240.752 111.335C296.562 123.485 341.532 134.455 341.222 135.855Z" fill="#E0E0E0"/>
<path d="M175.411 300.395C174.811 300.765 167.741 290.645 157.031 273.825C146.321 257.005 132.011 233.455 117.011 207.015C102.011 180.575 89.0115 156.245 80.0115 138.445C71.0115 120.645 65.8915 109.405 66.5115 109.135C67.1315 108.865 73.4115 119.425 83.2115 136.765C93.0115 154.105 106.541 178.045 121.491 204.495L160.181 271.975C170.071 289.205 176.011 300.005 175.411 300.395Z" fill="#E0E0E0"/>
<path d="M388.611 76.4655C388.951 82.1755 389.351 83.9055 391.461 88.4655C392.721 91.1655 394.461 93.6655 395.181 96.5555C395.901 99.4455 395.491 102.216 395.991 104.996C396.821 109.536 399.831 113.316 402.101 117.336C404.371 121.356 405.881 126.456 403.641 130.486L380.501 127.756L378.871 99.0355L388.611 76.4655Z" fill="#263238"/>
<path d="M342.611 66.7255C339.611 73.0855 343.781 79.4355 340.781 85.7855C339.188 88.8846 337.924 92.1425 337.011 95.5055C336.301 98.5055 336.151 101.776 334.911 104.656C332.911 109.246 328.421 112.346 326.331 116.886C323.241 123.616 326.531 132.046 332.431 136.516C338.331 140.986 346.191 142.086 353.581 141.576C358.051 141.256 362.581 140.366 366.451 138.066C370.321 135.766 373.391 131.866 373.881 127.406" fill="#263238"/>
<path d="M376.921 55.4155C391.801 62.0155 394.761 86.4655 394.841 89.7655C394.931 93.6855 397.021 94.5055 399.631 96.5555C402.241 98.6055 404.771 101.096 405.491 104.286C406.061 106.796 405.491 109.566 406.661 111.856C408.091 114.586 411.491 115.596 414.121 117.286C419.121 120.476 421.561 126.476 421.831 132.286C422.101 138.096 420.521 143.776 418.941 149.356C418.311 151.576 417.541 153.996 415.531 155.206C413.981 156.136 412.041 156.126 410.221 156.086L381.941 155.456C374.731 155.296 367.331 155.096 360.671 152.456C355.225 150.323 350.632 146.458 347.601 141.456C346.133 138.997 345.168 136.272 344.763 133.438C344.358 130.603 344.52 127.717 345.241 124.946C346.421 120.706 348.991 116.876 349.741 112.546C350.661 107.176 346.161 104.886 344.531 99.6755C342.901 94.4655 341.531 81.9955 343.781 77.0055" fill="#263238"/>
<path d="M393.931 190.236L389.281 175.336L388.611 198.136C388.611 198.136 394.611 213.686 399.231 225.566C388.576 231.914 376.421 235.307 364.018 235.393C351.615 235.479 339.414 232.256 328.671 226.056L335.831 200.326L332.421 171.136L323.011 184.686L302.861 165.206C302.861 165.206 317.611 137.956 319.441 135.466C331.111 119.606 351.251 119.986 351.251 119.986L379.761 121.566C379.761 121.566 395.761 120.676 406.321 133.356C406.321 133.356 416.611 149.066 425.061 187.826L393.931 190.236Z" fill="#FFAF48"/>
<path d="M408.193 137.616C408.058 137.649 407.921 137.673 407.783 137.686C407.503 137.686 407.092 137.746 406.562 137.846C405 138.094 403.473 138.527 402.013 139.136C399.712 140.107 397.607 141.49 395.803 143.216C394.66 144.285 393.652 145.491 392.803 146.806C391.822 148.249 391.12 149.864 390.733 151.566C390.552 152.474 390.583 153.411 390.823 154.306C391.105 155.225 391.681 156.026 392.463 156.586C392.853 156.879 393.31 157.073 393.793 157.149C394.276 157.226 394.77 157.183 395.233 157.026C395.7 156.82 396.115 156.512 396.447 156.124C396.78 155.736 397.021 155.279 397.153 154.786C397.475 153.758 397.396 152.647 396.933 151.676C396.428 150.672 395.683 149.81 394.763 149.166C392.814 147.785 390.539 146.937 388.163 146.706C385.65 146.459 383.113 146.683 380.683 147.366C378.125 148.013 375.674 149.023 373.403 150.366C371.058 151.779 369.018 153.645 367.403 155.856C366.572 156.957 366.073 158.271 365.963 159.646C365.942 160.322 366.12 160.989 366.473 161.566C366.847 162.145 367.346 162.633 367.933 162.996H367.883C368.515 163.273 369.228 163.305 369.883 163.086C370.535 162.768 371.05 162.224 371.333 161.556C371.943 160.115 372.23 158.559 372.173 156.996C372.201 155.447 371.951 153.905 371.433 152.446C370.879 151.017 370.011 149.732 368.893 148.686C366.697 146.631 363.885 145.359 360.893 145.066C357.985 144.821 355.057 145.161 352.283 146.066C349.573 146.906 346.862 148.006 345.122 150.066C344.675 150.529 344.33 151.081 344.109 151.686C343.888 152.291 343.796 152.935 343.84 153.578C343.883 154.22 344.06 154.846 344.361 155.416C344.661 155.986 345.077 156.486 345.583 156.886C346.049 157.276 346.619 157.523 347.223 157.596C347.812 157.66 348.405 157.519 348.903 157.196C349.379 156.85 349.771 156.4 350.049 155.88C350.326 155.36 350.481 154.784 350.503 154.196C350.602 153.021 350.469 151.839 350.113 150.716C349.933 150.166 349.693 149.636 349.493 149.096C349.383 148.836 349.293 148.556 349.163 148.306L348.763 147.556C347.75 145.644 346.444 143.903 344.893 142.396C342.21 139.791 338.957 137.846 335.393 136.716C332.71 135.842 329.89 135.469 327.073 135.616C325.291 135.727 323.53 136.063 321.833 136.616L320.523 137.086L320.062 137.226L320.503 137.036L321.793 136.516C323.491 135.926 325.259 135.563 327.053 135.436C329.9 135.247 332.758 135.586 335.483 136.436C339.103 137.557 342.411 139.509 345.143 142.136C346.75 143.651 348.101 145.417 349.143 147.366L349.562 148.126C349.692 148.386 349.783 148.666 349.893 148.936C350.113 149.486 350.353 150.026 350.543 150.596C350.919 151.77 351.062 153.006 350.963 154.236C350.942 154.895 350.77 155.542 350.46 156.124C350.149 156.707 349.709 157.21 349.173 157.596C348.579 157.977 347.873 158.142 347.173 158.066C346.485 157.986 345.835 157.708 345.303 157.266C344.215 156.375 343.522 155.093 343.372 153.696C343.297 152.985 343.4 152.266 343.673 151.606C343.936 150.947 344.3 150.333 344.753 149.786C346.603 147.576 349.393 146.456 352.133 145.606C354.971 144.678 357.968 144.338 360.943 144.606C364.061 144.897 366.995 146.216 369.283 148.356C370.451 149.455 371.36 150.801 371.943 152.296C372.486 153.816 372.75 155.421 372.723 157.036C372.78 158.678 372.476 160.313 371.833 161.826C371.493 162.611 370.878 163.244 370.103 163.606C369.315 163.885 368.45 163.857 367.683 163.526C367.028 163.127 366.473 162.583 366.062 161.936C365.656 161.28 365.454 160.517 365.483 159.746C365.591 158.267 366.122 156.851 367.013 155.666C368.679 153.4 370.78 151.49 373.193 150.046C375.509 148.668 378.011 147.631 380.622 146.966C383.109 146.273 385.704 146.049 388.273 146.306C390.727 146.551 393.074 147.433 395.083 148.866C396.057 149.559 396.844 150.483 397.372 151.556C397.885 152.624 397.967 153.848 397.603 154.976C397.451 155.526 397.177 156.034 396.801 156.464C396.425 156.893 395.958 157.232 395.433 157.456C394.91 157.639 394.351 157.689 393.804 157.602C393.258 157.515 392.742 157.292 392.303 156.956C391.457 156.345 390.835 155.474 390.533 154.476C390.277 153.525 390.25 152.528 390.453 151.566C390.852 149.822 391.579 148.169 392.592 146.696C393.46 145.371 394.484 144.155 395.643 143.076C397.487 141.347 399.632 139.971 401.973 139.016C403.441 138.416 404.98 138.006 406.553 137.796C407.095 137.704 407.643 137.644 408.193 137.616Z" fill="#FAFAFA"/>
<path d="M420.272 170.196C419.384 170.56 418.519 170.977 417.682 171.446C415.451 172.81 413.673 174.804 412.572 177.176C412.212 177.954 411.937 178.769 411.752 179.606C411.506 180.485 411.506 181.416 411.752 182.296C411.863 182.734 412.121 183.122 412.482 183.396C412.665 183.519 412.875 183.596 413.094 183.62C413.314 183.644 413.536 183.615 413.742 183.536C414.18 183.305 414.551 182.964 414.817 182.547C415.084 182.13 415.237 181.65 415.262 181.156C415.365 180.057 415.133 178.952 414.598 177.987C414.063 177.021 413.248 176.24 412.262 175.746C411.169 175.264 409.972 175.071 408.783 175.183C407.595 175.295 406.455 175.709 405.472 176.386C403.497 177.807 402.124 179.915 401.622 182.296C401.297 183.371 401.393 184.529 401.892 185.536C402.121 185.99 402.51 186.344 402.985 186.529C403.459 186.714 403.985 186.716 404.462 186.536C404.904 186.316 405.275 185.976 405.534 185.555C405.792 185.134 405.926 184.649 405.922 184.156C405.895 183.182 405.594 182.235 405.052 181.426C404.104 179.915 402.678 178.764 401.002 178.156C399.618 177.65 398.116 177.559 396.682 177.896C395.598 178.155 394.577 178.631 393.682 179.296C392.927 179.868 392.255 180.541 391.682 181.296C391.705 181.236 391.736 181.179 391.772 181.126C391.857 180.96 391.958 180.803 392.072 180.656C392.486 180.062 392.988 179.536 393.562 179.096C394.462 178.377 395.505 177.859 396.622 177.576C398.111 177.187 399.683 177.257 401.132 177.776C402.906 178.384 404.421 179.575 405.432 181.156C406.032 182.043 406.362 183.085 406.382 184.156C406.393 184.739 406.237 185.314 405.932 185.812C405.627 186.31 405.186 186.71 404.662 186.966C404.377 187.091 404.068 187.156 403.757 187.156C403.445 187.156 403.137 187.091 402.852 186.966C402.278 186.719 401.798 186.295 401.482 185.756C400.905 184.642 400.779 183.349 401.132 182.146C401.656 179.633 403.105 177.41 405.192 175.916C406.249 175.184 407.479 174.739 408.76 174.623C410.041 174.507 411.33 174.725 412.502 175.256C413.582 175.796 414.475 176.651 415.062 177.707C415.649 178.763 415.903 179.972 415.792 181.176C415.753 181.755 415.563 182.314 415.24 182.797C414.917 183.28 414.473 183.669 413.952 183.926C413.675 184.028 413.378 184.063 413.086 184.027C412.793 183.99 412.514 183.883 412.272 183.716C411.838 183.379 411.529 182.907 411.392 182.376C411.121 181.428 411.121 180.423 411.392 179.476C411.591 178.615 411.886 177.78 412.272 176.986C413.417 174.565 415.282 172.556 417.612 171.236C418.437 170.748 419.335 170.397 420.272 170.196Z" fill="#FAFAFA"/>
<path d="M388.722 184.586C388.639 184.597 388.555 184.597 388.472 184.586L387.762 184.416C386.85 184.2 385.924 184.043 384.992 183.946C381.557 183.583 378.086 184.067 374.882 185.356C373.839 185.78 372.835 186.296 371.882 186.896C370.837 187.523 369.937 188.365 369.242 189.366C368.875 189.885 368.638 190.484 368.549 191.114C368.461 191.743 368.523 192.385 368.732 192.986C368.94 193.603 369.331 194.144 369.852 194.536C370.115 194.727 370.416 194.862 370.735 194.931C371.053 195 371.383 195.001 371.702 194.936C372.375 194.756 372.98 194.379 373.438 193.853C373.896 193.328 374.186 192.677 374.272 191.986C374.388 190.488 373.982 188.997 373.122 187.766C371.355 185.066 368.633 183.134 365.502 182.356C362.358 181.608 359.047 182.106 356.262 183.746C354.944 184.494 353.789 185.497 352.862 186.696C352.443 187.3 352.145 187.979 351.982 188.696C351.788 189.359 351.845 190.071 352.142 190.696C352.299 190.972 352.52 191.207 352.786 191.381C353.052 191.554 353.356 191.662 353.672 191.696C354.318 191.733 354.958 191.546 355.482 191.166C355.986 190.788 356.378 190.281 356.616 189.698C356.854 189.115 356.928 188.478 356.832 187.856C356.696 186.645 356.3 185.479 355.672 184.436C355.103 183.459 354.4 182.566 353.582 181.786C352.152 180.435 350.446 179.411 348.582 178.786C347.179 178.308 345.704 178.077 344.222 178.106C342.961 178.146 341.711 178.348 340.502 178.706C340.502 178.706 340.572 178.706 340.732 178.606L341.422 178.356C342.333 178.091 343.274 177.94 344.222 177.906C345.729 177.837 347.237 178.04 348.672 178.506C350.58 179.12 352.331 180.144 353.802 181.506C354.655 182.278 355.398 183.163 356.012 184.136C356.68 185.225 357.103 186.446 357.252 187.716C357.323 188.39 357.248 189.072 357.032 189.716C356.793 190.405 356.341 191 355.742 191.416C355.126 191.856 354.378 192.074 353.622 192.036C353.224 191.999 352.842 191.865 352.509 191.646C352.175 191.426 351.902 191.127 351.712 190.776C351.357 190.059 351.279 189.236 351.492 188.466C351.671 187.702 351.993 186.979 352.442 186.336C353.405 185.068 354.616 184.009 356.002 183.226C358.895 181.511 362.342 180.991 365.612 181.776C368.875 182.581 371.71 184.597 373.542 187.416C374.464 188.748 374.896 190.36 374.762 191.976C374.655 192.77 374.312 193.515 373.777 194.112C373.242 194.709 372.54 195.132 371.762 195.326C371.378 195.403 370.982 195.399 370.6 195.315C370.218 195.231 369.857 195.067 369.542 194.836C368.943 194.388 368.496 193.766 368.262 193.056C368.026 192.379 367.961 191.654 368.072 190.946C368.195 190.266 368.457 189.619 368.842 189.046C369.577 187.999 370.529 187.123 371.632 186.476C372.621 185.871 373.662 185.355 374.742 184.936C378.006 183.662 381.539 183.235 385.012 183.696C386.283 183.826 387.53 184.125 388.722 184.586Z" fill="#FAFAFA"/>
<path d="M277.012 101.236C279.082 101.336 278.492 112.646 280.012 110.236C281.532 107.826 279.132 96.3655 281.292 96.5655C284.112 96.8355 283.292 108.656 283.292 109.666C283.292 110.676 284.742 110.666 284.692 109.756C284.622 108.456 284.182 94.7555 286.952 94.9855C288.492 95.1155 287.952 97.8655 287.952 97.8655C287.952 97.8655 287.412 110.736 288.722 110.796C290.032 110.856 290.632 103.316 290.642 100.796C290.652 98.2755 291.862 97.2255 292.972 98.1255C293.732 98.7455 293.882 106.566 293.812 109.126C293.742 111.686 293.422 118.586 296.352 115.226C299.282 111.866 302.782 110.356 303.992 110.596C305.202 110.836 305.272 112.596 303.992 113.196C302.696 113.964 301.508 114.902 300.462 115.986C299.636 116.865 298.911 117.834 298.302 118.876C297.598 119.979 297.074 121.187 296.752 122.456L300.692 169.606L303.582 165.996L320.052 181.926L311.452 191.816C305.162 199.066 293.762 199.526 287.362 192.376C287.132 192.116 286.902 191.846 286.692 191.566C285.126 189.492 284.199 187.008 284.022 184.416L278.582 123.296H278.532C278.412 116.506 276.532 111.296 276.242 107.836C275.662 101.266 276.242 101.196 277.012 101.236Z" fill="#FFBE9D"/>
<path d="M353.171 126.426C353.231 119.316 353.171 111.836 353.171 111.836C353.171 111.836 344.031 110.206 342.281 98.2355C340.601 86.8155 343.441 62.2355 343.441 62.2355C356.691 57.0155 371.601 59.0355 380.871 69.6855L379.431 127.426C379.261 134.126 373.371 139.316 366.191 139.086C358.941 138.876 353.111 133.196 353.171 126.426Z" fill="#FFBE9D"/>
<path d="M345.922 81.1355C345.914 81.5356 346.062 81.9233 346.334 82.2163C346.607 82.5094 346.983 82.6848 347.382 82.7055C347.577 82.7219 347.774 82.6994 347.961 82.6392C348.147 82.579 348.32 82.4824 348.469 82.3549C348.617 82.2275 348.739 82.0717 348.828 81.8967C348.916 81.7218 348.968 81.531 348.982 81.3355C348.99 80.9364 348.842 80.5499 348.57 80.2585C348.297 79.967 347.921 79.7937 347.522 79.7755C347.327 79.7564 347.13 79.7766 346.943 79.8351C346.756 79.8936 346.583 79.9892 346.434 80.1161C346.284 80.243 346.162 80.3987 346.074 80.5738C345.986 80.7489 345.935 80.94 345.922 81.1355Z" fill="#263238"/>
<path d="M343.462 79.3756C343.642 79.5756 344.822 78.7255 346.462 78.7555C348.102 78.7855 349.312 79.6155 349.462 79.4155C349.612 79.2155 349.362 78.9655 348.842 78.5755C348.136 78.0706 347.29 77.798 346.422 77.7956C345.562 77.7811 344.721 78.0441 344.022 78.5456C343.542 78.9256 343.362 79.2856 343.462 79.3756Z" fill="#263238"/>
<path d="M362.801 81.6055C362.791 82.0054 362.938 82.3933 363.211 82.6854C363.484 82.9774 363.862 83.1499 364.261 83.1655C364.456 83.1847 364.652 83.1644 364.839 83.1058C365.025 83.0472 365.198 82.9515 365.346 82.8245C365.495 82.6974 365.616 82.5417 365.703 82.3666C365.79 82.1915 365.84 82.0007 365.851 81.8055C365.862 81.4064 365.717 81.0188 365.446 80.7254C365.175 80.4321 364.8 80.2563 364.401 80.2356C364.206 80.2178 364.009 80.2394 363.822 80.299C363.635 80.3587 363.461 80.4552 363.312 80.5829C363.163 80.7106 363.041 80.8669 362.953 81.0425C362.866 81.2182 362.814 81.4096 362.801 81.6055Z" fill="#263238"/>
<path d="M360.661 80.1355C360.841 80.3355 362.021 79.4855 363.661 79.5155C365.301 79.5455 366.511 80.3755 366.661 80.1755C366.811 79.9755 366.561 79.7255 366.041 79.3355C365.334 78.8323 364.489 78.5599 363.621 78.5555C362.763 78.5381 361.921 78.7976 361.221 79.2955C360.741 79.7255 360.561 80.1355 360.661 80.1355Z" fill="#263238"/>
<path d="M354.532 92.3355C353.669 92.044 352.771 91.8691 351.862 91.8155C351.442 91.7655 351.042 91.6855 350.972 91.3955C350.946 90.9583 351.05 90.5233 351.272 90.1455C351.672 89.1455 352.102 88.0655 352.552 86.9556C354.332 82.4156 355.632 78.6755 355.442 78.6055C355.252 78.5355 353.672 82.1556 351.882 86.7056L350.652 89.9155C350.385 90.4221 350.304 91.0055 350.422 91.5655C350.477 91.7158 350.568 91.8505 350.686 91.9584C350.804 92.0663 350.947 92.1442 351.102 92.1855C351.332 92.2561 351.571 92.2931 351.812 92.2955C352.713 92.4201 353.627 92.4336 354.532 92.3355Z" fill="#263238"/>
<path d="M353.162 111.836C358.791 111.985 364.351 110.569 369.222 107.746C369.222 107.746 365.222 115.916 353.292 114.656L353.162 111.836Z" fill="#EB996E"/>
<path d="M355.181 96.3155C355.502 95.9263 355.916 95.6242 356.384 95.4372C356.853 95.2501 357.361 95.1842 357.861 95.2456C358.223 95.2781 358.574 95.3835 358.894 95.5554C359.213 95.7273 359.495 95.962 359.721 96.2456C359.946 96.5257 360.078 96.8692 360.098 97.2279C360.117 97.5866 360.024 97.9424 359.831 98.2456C359.562 98.538 359.212 98.7437 358.826 98.8363C358.439 98.9289 358.034 98.9043 357.661 98.7656C356.885 98.4844 356.175 98.049 355.571 97.4856C355.388 97.3502 355.229 97.1845 355.101 96.9956C355.04 96.9037 355.008 96.7959 355.008 96.6856C355.008 96.5753 355.04 96.4674 355.101 96.3756" fill="#EB996E"/>
<path d="M359.371 93.5255C359.101 93.5255 359.081 95.2955 357.531 96.5255C355.981 97.7555 354.081 97.5255 354.061 97.8055C354.041 98.0855 354.481 98.1555 355.291 98.1855C356.343 98.2085 357.368 97.8537 358.181 97.1855C358.971 96.5621 359.484 95.6537 359.611 94.6555C359.691 93.9655 359.491 93.5155 359.371 93.5255Z" fill="#263238"/>
<path d="M375.671 61.1955C371.301 67.4255 359.731 73.8355 351.441 75.3255C352.441 74.0555 357.501 70.9155 358.441 69.6455C354.691 72.4455 349.311 76.1955 344.331 76.4555C343.744 76.5375 343.145 76.4436 342.611 76.1855C342.33 75.9615 342.104 75.6749 341.953 75.3485C341.802 75.0221 341.73 74.665 341.741 74.3055C341.462 70.6969 341.58 67.0686 342.091 63.4855C342.484 60.4519 344.027 57.685 346.401 55.7555C349.591 53.2855 354.161 52.6755 358.471 52.5755C362.074 52.3443 365.687 52.8304 369.101 54.0055C372.411 55.3055 375.231 57.8855 375.711 61.0055" fill="#263238"/>
<path d="M388.211 89.1355C388.767 86.495 389.164 83.8236 389.401 81.1355C389.751 74.9755 387.971 52.2155 366.711 54.0455L371.831 60.5755C371.831 60.5755 367.631 74.3655 376.571 83.8855C376.571 83.8855 377.081 89.4555 383.311 95.8855C383.311 95.8855 386.921 95.7755 388.211 89.1355Z" fill="#263238"/>
<path d="M376.322 82.8456C377.608 82.5899 378.939 82.6902 380.172 83.1355C381.404 83.5994 382.402 84.53 382.952 85.7255C383.437 86.9528 383.437 88.3183 382.952 89.5456C382.459 90.7585 381.705 91.8477 380.742 92.7356C380.091 93.4154 379.29 93.9327 378.402 94.2455C377.957 94.3966 377.481 94.4354 377.017 94.3587C376.553 94.2819 376.115 94.0919 375.742 93.8055" fill="#FFBE9D"/>
<path d="M376.942 90.6055C376.792 90.6055 377.342 91.4255 378.512 91.1255C379.143 90.9195 379.667 90.4743 379.972 89.8855C380.33 89.2293 380.554 88.5088 380.632 87.7655C380.734 86.9788 380.553 86.1815 380.122 85.5155C379.936 85.2345 379.69 84.9987 379.401 84.8256C379.112 84.6525 378.788 84.5466 378.452 84.5155C377.252 84.5155 376.862 85.3055 377.002 85.3255C377.142 85.3455 377.572 85.0055 378.352 85.1955C378.83 85.3874 379.224 85.7438 379.462 86.2004C379.701 86.657 379.768 87.1837 379.652 87.6855C379.502 88.9955 378.982 90.1955 378.272 90.4855C377.562 90.7755 377.012 90.4955 376.942 90.6055Z" fill="#EB996E"/>
<path d="M391.312 205.096V199.636H352.882L341.602 150.236L284.092 150.706L298.032 205.096H391.312Z" fill="#263238"/>
<path d="M311.341 177.696C312.191 180.316 314.501 181.906 316.511 181.256C318.521 180.606 319.451 177.956 318.591 175.346C317.731 172.736 315.431 171.136 313.431 171.786C311.431 172.436 310.491 175.136 311.341 177.696Z" fill="#FAFAFA"/>
<path d="M339.011 204.766C338.042 202.923 337.235 200.999 336.601 199.016C336.425 198.547 336.35 198.046 336.381 197.546C336.404 197.299 336.5 197.064 336.657 196.872C336.813 196.679 337.024 196.538 337.261 196.466C338.161 196.286 338.721 197.376 339.071 198.216C339.74 199.788 340.771 201.181 342.079 202.281C343.387 203.381 344.937 204.157 346.601 204.546L348.931 204.486V204.386L399.201 199.906L396.801 189.906L423.411 187.906L425.841 197.726C426.155 200.617 425.842 203.543 424.924 206.303C424.005 209.063 422.502 211.592 420.518 213.719C418.534 215.846 416.114 217.52 413.424 218.627C410.735 219.734 407.838 220.249 404.931 220.136H347.251C328.901 221.336 325.451 205.136 325.451 205.136L339.011 204.766Z" fill="#FFBE9D"/>
<path d="M272.132 365.925L249.412 379.925L257.752 399.975C265.491 392.783 271.577 383.998 275.592 374.225L272.132 365.925Z" fill="#B78876"/>
<path d="M278.301 366.385C275.361 359.385 265.301 336.145 256.851 327.465C244.221 314.465 221.991 316.225 221.991 316.225L193.111 317.225C185.706 318.228 178.519 320.452 171.841 323.805L171.131 324.025V324.165C163.051 328.555 151.611 339.085 140.701 349.305L153.751 361.405L168.191 374.225C168.159 374.309 168.159 374.402 168.191 374.485C168.341 375.265 165.841 390.775 163.631 404.175C174.404 412.521 187.302 417.676 200.859 419.055C214.417 420.434 228.089 417.981 240.321 411.975L241.401 399.585C242.401 388.355 243.141 374.455 243.141 374.455L247.281 384.965L277.411 369.305C277.721 368.355 278.011 367.375 278.301 366.385Z" fill="#FFAF48"/>
<path d="M222.792 315.135C222.857 315.303 222.9 315.477 222.922 315.655C223.021 316.154 223.084 316.658 223.112 317.165C223.211 319.046 222.956 320.928 222.362 322.715C221.484 325.383 219.91 327.769 217.802 329.625C215.149 331.843 211.843 333.131 208.388 333.294C204.934 333.456 201.522 332.484 198.672 330.525C196.392 328.878 194.594 326.651 193.462 324.075C192.703 322.354 192.275 320.505 192.202 318.625C192.162 318.12 192.162 317.611 192.202 317.105C192.201 316.926 192.228 316.747 192.282 316.575C192.342 316.575 192.282 317.305 192.362 318.575C192.519 320.413 192.993 322.209 193.762 323.885C194.909 326.365 196.68 328.505 198.902 330.095C201.674 331.968 204.977 332.893 208.318 332.735C211.659 332.576 214.86 331.342 217.442 329.215C219.177 327.721 220.565 325.866 221.508 323.779C222.451 321.693 222.927 319.425 222.902 317.135C222.882 315.855 222.732 315.135 222.792 315.135Z" fill="#263238"/>
<path d="M250.292 321.395C249.614 321.502 248.945 321.663 248.292 321.875C246.507 322.552 244.955 323.729 243.822 325.265C242.191 327.585 241.21 330.299 240.982 333.125C240.782 334.715 240.692 336.405 240.632 338.125C240.572 339.845 240.532 341.685 240.512 343.545C240.471 349.889 240.754 356.231 241.362 362.545C241.592 364.965 241.832 366.925 241.982 368.285C242.062 368.915 242.112 369.425 242.162 369.845C242.189 370.028 242.189 370.213 242.162 370.395C242.097 370.222 242.053 370.04 242.032 369.855C241.952 369.445 241.862 368.935 241.752 368.305C241.542 366.965 241.242 365.005 240.972 362.575C240.252 356.252 239.918 349.89 239.972 343.525C239.972 341.665 240.022 339.845 240.102 338.085C240.182 336.325 240.262 334.625 240.482 333.015C240.739 330.126 241.776 327.361 243.482 325.015C244.674 323.447 246.313 322.275 248.182 321.655C248.862 321.431 249.579 321.343 250.292 321.395Z" fill="#263238"/>
<path d="M181.561 319.515C181.543 319.706 181.502 319.894 181.441 320.075L180.991 321.655L179.291 327.455C177.881 332.355 176.011 339.145 174.181 346.705C172.351 354.265 170.921 361.135 169.951 366.135C169.471 368.585 169.091 370.585 168.811 372.065C168.681 372.715 168.571 373.245 168.481 373.675C168.462 373.865 168.415 374.05 168.341 374.225C168.319 374.036 168.319 373.845 168.341 373.655C168.401 373.225 168.471 372.655 168.571 372.025C168.771 370.615 169.101 368.575 169.571 366.025C170.461 361.025 171.841 354.025 173.661 346.505C175.481 338.985 177.421 332.145 178.931 327.275C179.681 324.835 180.321 322.865 180.781 321.515C181.001 320.885 181.181 320.375 181.331 319.965C181.393 319.808 181.47 319.658 181.561 319.515Z" fill="#263238"/>
<path d="M277.731 361.555C277.365 361.884 276.97 362.179 276.551 362.435C275.781 362.975 274.641 363.735 273.221 364.645C270.381 366.485 266.411 368.935 261.941 371.495C257.471 374.055 253.341 376.245 250.331 377.765C248.821 378.525 247.591 379.125 246.741 379.525C246.304 379.752 245.849 379.943 245.381 380.095C245.779 379.811 246.201 379.56 246.641 379.345L250.161 377.435C253.161 375.835 257.221 373.605 261.681 371.045C266.141 368.485 270.141 366.045 273.021 364.335L276.441 362.265C276.846 361.987 277.279 361.749 277.731 361.555Z" fill="#263238"/>
<path d="M169.701 365.945C169.601 366.055 163.931 361.585 157.021 355.945C150.111 350.305 144.571 345.655 144.661 345.545C144.751 345.435 150.431 349.905 157.341 355.545C164.251 361.185 169.791 365.835 169.701 365.945Z" fill="#263238"/>
<path opacity="0.2" d="M240.181 345.625L251.481 382.805L247.271 384.995L243.131 374.485C243.131 374.485 238.861 352.385 240.181 345.625Z" fill="black"/>
<g opacity="0.2">
<path opacity="0.2" d="M182.781 319.535C176.691 322.755 191.961 330.535 198.861 330.275L193.861 317.055C193.861 317.055 184.831 318.465 182.781 319.535Z" fill="black"/>
</g>
<path opacity="0.2" d="M221.672 373.465L185.492 373.595L187.872 360.285L224.352 359.575L221.672 373.465Z" fill="white"/>
<path d="M218.212 272.225C218.076 272.73 218.087 273.263 218.245 273.761C218.403 274.259 218.7 274.701 219.102 275.035C219.515 275.357 220.011 275.554 220.531 275.604C221.052 275.653 221.576 275.553 222.042 275.315C223.782 274.385 223.962 271.945 223.572 270.005C223.182 268.065 222.492 266.005 223.272 264.195C223.872 262.805 225.202 261.905 226.272 260.795C227.185 259.839 227.862 258.683 228.249 257.419C228.636 256.156 228.723 254.819 228.502 253.515C228.259 252.22 227.664 251.017 226.782 250.038C225.9 249.059 224.765 248.342 223.502 247.965C220.902 247.295 217.722 248.155 215.762 246.315C214.332 244.985 214.202 242.755 213.092 241.155C211.362 238.675 207.802 238.345 204.812 238.805C201.822 239.265 198.812 240.295 195.812 239.625C193.342 239.065 191.302 237.385 188.982 236.385C186.445 235.26 183.619 234.96 180.902 235.527C178.185 236.094 175.715 237.5 173.84 239.546C171.965 241.592 170.78 244.175 170.452 246.931C170.124 249.687 170.67 252.476 172.012 254.905C172.897 256.688 174.38 258.104 176.202 258.905" fill="#263238"/>
<path d="M207.722 332.975C203.916 333.002 200.246 331.563 197.472 328.956C194.698 326.35 193.033 322.776 192.822 318.975C192.492 312.415 192.222 306.105 192.222 306.105C192.222 306.105 180.052 305.225 178.932 293.335C177.812 281.445 177.652 253.935 177.652 253.935C184.246 250.474 191.638 248.82 199.078 249.139C206.517 249.459 213.74 251.742 220.012 255.755L221.172 256.495L222.582 318.045C222.594 320.004 222.218 321.945 221.477 323.757C220.735 325.569 219.642 327.216 218.261 328.604C216.879 329.992 215.237 331.093 213.428 331.843C211.62 332.593 209.68 332.978 207.722 332.975Z" fill="#B78876"/>
<path d="M200.742 272.215C200.524 272.285 200.322 272.396 200.147 272.544C199.973 272.692 199.829 272.873 199.725 273.077C199.621 273.28 199.558 273.503 199.54 273.731C199.523 273.959 199.55 274.188 199.622 274.405C199.772 274.844 200.09 275.206 200.506 275.412C200.921 275.618 201.402 275.652 201.842 275.505C202.058 275.433 202.258 275.319 202.43 275.17C202.602 275.02 202.742 274.839 202.844 274.635C202.946 274.431 203.006 274.209 203.022 273.982C203.038 273.755 203.009 273.526 202.937 273.31C202.865 273.094 202.751 272.895 202.601 272.723C202.452 272.551 202.27 272.41 202.066 272.308C201.862 272.207 201.641 272.146 201.413 272.13C201.186 272.114 200.958 272.143 200.742 272.215Z" fill="#263238"/>
<path d="M197.402 272.825C197.602 273.025 198.732 272.055 200.402 271.945C202.072 271.835 203.312 272.615 203.482 272.395C203.652 272.175 203.352 271.935 202.802 271.575C202.063 271.111 201.196 270.894 200.326 270.955C199.456 271.016 198.628 271.353 197.962 271.915C197.462 272.355 197.312 272.745 197.402 272.825Z" fill="#263238"/>
<path d="M182.581 272.215C182.363 272.284 182.161 272.396 181.987 272.544C181.813 272.692 181.67 272.874 181.567 273.078C181.463 273.281 181.402 273.504 181.385 273.732C181.369 273.96 181.398 274.189 181.471 274.405C181.577 274.736 181.778 275.028 182.05 275.244C182.322 275.461 182.652 275.591 182.998 275.619C183.344 275.647 183.691 275.571 183.994 275.401C184.297 275.231 184.543 274.975 184.7 274.665C184.857 274.356 184.918 274.006 184.876 273.661C184.834 273.317 184.69 272.992 184.463 272.73C184.235 272.467 183.935 272.278 183.6 272.186C183.265 272.095 182.91 272.105 182.581 272.215Z" fill="#263238"/>
<path d="M179.013 272.865C179.213 273.065 180.343 272.085 182.013 271.985C183.683 271.885 184.923 272.655 185.093 272.435C185.263 272.215 184.963 271.975 184.413 271.605C183.672 271.146 182.805 270.932 181.936 270.995C181.066 271.058 180.239 271.394 179.573 271.955C179.083 272.395 178.933 272.775 179.013 272.865Z" fill="#263238"/>
<path d="M191.522 285.725C190.641 285.458 189.722 285.343 188.802 285.385C188.362 285.385 188.012 285.295 187.962 285.075C187.912 284.644 187.985 284.207 188.172 283.815L189.172 280.385C190.592 275.485 191.532 271.465 191.282 271.385C191.032 271.305 189.682 275.215 188.282 280.115L187.282 283.565C187.043 284.14 187.011 284.78 187.192 285.375C187.267 285.534 187.379 285.673 187.518 285.781C187.657 285.889 187.819 285.962 187.992 285.995C188.238 286.023 188.486 286.023 188.732 285.995C189.671 286.067 190.615 285.976 191.522 285.725Z" fill="#263238"/>
<path d="M197.012 287.135C194.484 288.409 191.829 289.414 189.092 290.135C189.727 290.953 190.619 291.532 191.624 291.781C192.629 292.029 193.689 291.932 194.632 291.505C198.152 289.865 197.012 287.135 197.012 287.135Z" fill="white"/>
<path d="M192.182 305.915C197.729 305.574 203.052 303.602 207.482 300.245C207.482 300.245 204.482 309.115 192.412 309.005L192.182 305.915Z" fill="#A36957"/>
<path d="M221.481 268.525C221.472 268.059 221.644 267.607 221.961 267.264C222.278 266.921 222.715 266.714 223.181 266.685C225.421 266.585 229.111 267.395 229.581 273.525C230.241 282.285 221.691 280.265 221.651 280.015C221.611 279.765 221.521 271.935 221.481 268.525Z" fill="#B78876"/>
<path d="M223.542 276.525C223.542 276.525 223.702 276.625 223.972 276.725C224.35 276.848 224.759 276.827 225.122 276.665C226.032 276.255 226.702 274.725 226.622 273.145C226.591 272.39 226.39 271.652 226.032 270.985C225.927 270.718 225.758 270.48 225.54 270.292C225.322 270.104 225.062 269.971 224.782 269.905C224.603 269.87 224.416 269.901 224.257 269.99C224.098 270.08 223.975 270.224 223.912 270.395C223.812 270.645 223.912 270.815 223.832 270.835C223.752 270.855 223.632 270.705 223.672 270.335C223.707 270.113 223.816 269.908 223.982 269.755C224.213 269.56 224.51 269.46 224.812 269.475C225.179 269.516 225.529 269.65 225.829 269.866C226.129 270.081 226.367 270.37 226.522 270.705C226.96 271.436 227.208 272.265 227.242 273.115C227.322 274.885 226.532 276.605 225.242 277.065C225.011 277.151 224.763 277.183 224.518 277.161C224.272 277.138 224.034 277.061 223.822 276.935C223.572 276.735 223.512 276.545 223.542 276.525Z" fill="#A36957"/>
<path d="M203.301 267.945C202.931 268.425 201.621 268.205 199.931 268.135C198.241 268.065 196.931 268.055 196.601 267.535C196.271 267.015 197.891 265.745 200.071 265.915C202.251 266.085 203.721 267.445 203.301 267.945Z" fill="#263238"/>
<path d="M184.192 267.645C184.062 268.245 182.972 268.535 181.732 268.645C180.492 268.755 179.352 268.645 179.122 268.075C178.892 267.505 179.932 266.575 181.532 266.435C183.132 266.295 184.322 267.055 184.192 267.645Z" fill="#263238"/>
<path d="M176.011 257.685C176.011 257.685 183.231 261.175 192.621 256.485C198.791 253.415 205.971 251.905 207.551 253.145C209.131 254.385 209.471 260.735 215.551 262.595C215.551 262.595 215.131 274.705 219.961 274.275C224.791 273.845 221.771 255.075 221.771 255.075L209.951 249.305L197.011 246.865L184.851 248.585L175.451 251.155L176.011 257.685Z" fill="#263238"/>
<path d="M132.792 278.425C133.222 279.115 147.122 327.275 147.122 327.275L119.542 331.045L106.852 291.735L132.792 278.425Z" fill="#455A64"/>
<path d="M147.122 327.275L149.602 325.965L135.162 277.165L132.492 278.575L147.122 327.275Z" fill="#263238"/>
<path d="M121.232 291.215C121.281 291.442 121.261 291.678 121.175 291.894C121.09 292.109 120.942 292.294 120.751 292.425C120.56 292.557 120.334 292.628 120.102 292.631C119.87 292.634 119.643 292.568 119.449 292.441C119.255 292.315 119.102 292.133 119.012 291.92C118.921 291.707 118.895 291.471 118.938 291.243C118.982 291.016 119.091 290.806 119.254 290.641C119.417 290.475 119.625 290.362 119.852 290.315C120.154 290.253 120.469 290.313 120.727 290.481C120.986 290.65 121.167 290.914 121.232 291.215Z" fill="#263238"/>
<path d="M141.922 349.265L123.822 361.055L120.492 318.885L120.772 316.775L133.012 312.135L129.492 303.135C129.087 302.138 128.479 301.235 127.707 300.485C126.935 299.734 126.015 299.153 125.006 298.777C123.997 298.401 122.921 298.238 121.846 298.3C120.771 298.362 119.721 298.646 118.762 299.135L114.832 301.135C113.45 301.841 112.231 302.829 111.255 304.034C110.278 305.24 109.565 306.637 109.162 308.135C107.772 313.355 106.532 319.005 106.662 318.515L98.9016 372.795C98.9016 372.795 95.2216 388.445 105.902 395.895C113.992 401.515 127.612 395.545 134.842 391.455L166.182 372.575L141.922 349.265Z" fill="#B78876"/>
<path d="M160.402 127.895L148.132 109.225L127.432 122.225L146.192 151.135C146.192 151.135 156.512 139.955 160.402 127.895Z" fill="#EB996E"/>
<path d="M83.5007 34.4954C84.5007 33.3854 83.1407 31.6454 81.7207 31.1254C80.3007 30.6054 78.5507 30.3754 77.8707 29.0354C77.0507 27.4054 78.5007 25.5754 78.7607 23.7654C79.0207 21.9554 77.9207 19.9954 77.5907 18.0654C77.3805 16.8332 77.4951 15.5674 77.9234 14.3931C78.3516 13.2187 79.0786 12.1762 80.0327 11.3686C80.9867 10.5609 82.1349 10.0159 83.3638 9.78738C84.5928 9.55885 85.8601 9.65467 87.0407 10.0654C87.1164 8.16755 87.7677 6.33765 88.9081 4.81875C90.0485 3.29985 91.624 2.16383 93.4253 1.56158C95.2267 0.959324 97.1686 0.919334 98.9932 1.44692C100.818 1.97452 102.439 3.04472 103.641 4.51539C105.443 3.01424 107.437 1.75987 109.571 0.785388C110.64 0.303751 111.794 0.0381361 112.966 0.00381347C114.138 -0.0305092 115.305 0.167136 116.401 0.585387C117.485 1.0378 118.394 1.82837 118.992 2.83929C119.59 3.85022 119.846 5.02738 119.721 6.19539C120.593 5.28323 121.733 4.67308 122.976 4.45366C124.219 4.23425 125.499 4.41702 126.631 4.97539C127.747 5.5639 128.725 6.38393 129.5 7.38069C130.274 8.37744 130.827 9.52796 131.121 10.7554C132.041 14.1554 131.241 18.1554 128.531 20.3954C125.821 22.6354 121.191 22.3954 119.181 19.5454" fill="#263238"/>
<path d="M96.7798 91.9754C100.343 91.9934 103.777 90.6402 106.37 88.196C108.964 85.7517 110.517 82.4037 110.71 78.8454C111.02 72.7154 111.28 66.8454 111.28 66.8454C111.28 66.8454 122.66 66.0154 123.71 54.8454C124.76 43.6754 124.9 17.9754 124.9 17.9754C118.726 14.7376 111.806 13.1921 104.842 13.496C97.8774 13.7998 91.1177 15.9422 85.2498 19.7054L84.1698 20.3954L82.8598 77.9854C82.8453 79.8207 83.1949 81.6408 83.8884 83.3401C84.5819 85.0394 85.6056 86.5844 86.9001 87.8855C88.1947 89.1865 89.7345 90.2179 91.4303 90.92C93.1262 91.622 94.9444 91.9807 96.7798 91.9754Z" fill="#FFBE9D"/>
<path d="M103.31 35.1354C103.702 35.2764 104.024 35.5628 104.21 35.9352C104.396 36.3076 104.432 36.7374 104.31 37.1354C104.163 37.5386 103.864 37.8685 103.478 38.0552C103.091 38.2419 102.647 38.2707 102.24 38.1354C101.847 37.9965 101.523 37.7104 101.336 37.3373C101.149 36.9642 101.115 36.5334 101.24 36.1354C101.385 35.7306 101.683 35.399 102.07 35.212C102.457 35.0249 102.903 34.9974 103.31 35.1354Z" fill="#263238"/>
<path d="M106.43 35.6954C106.24 35.8754 105.18 34.9654 103.64 34.8754C102.1 34.7854 100.91 35.4954 100.75 35.2954C100.59 35.0954 100.87 34.8654 101.38 34.5154C102.073 34.0822 102.886 33.8825 103.7 33.9454C104.515 33.9982 105.29 34.314 105.91 34.8454C106.37 35.2554 106.52 35.6154 106.43 35.6954Z" fill="#263238"/>
<path d="M120.3 35.1354C120.69 35.2784 121.011 35.5651 121.197 35.9369C121.383 36.3086 121.42 36.7374 121.3 37.1354C121.153 37.5386 120.854 37.8685 120.468 38.0552C120.081 38.2419 119.637 38.2707 119.23 38.1354C118.837 37.9965 118.513 37.7104 118.326 37.3373C118.14 36.9642 118.105 36.5334 118.23 36.1354C118.375 35.7306 118.673 35.399 119.061 35.212C119.448 35.0249 119.893 34.9974 120.3 35.1354Z" fill="#263238"/>
<path d="M123.621 35.7354C123.441 35.9154 122.381 35.0054 120.831 34.9054C119.281 34.8054 118.111 35.5354 117.951 35.3254C117.791 35.1154 118.071 34.8954 118.581 34.5554C119.273 34.1216 120.084 33.9188 120.898 33.9764C121.713 34.0339 122.488 34.3487 123.111 34.8754C123.571 35.2854 123.711 35.6454 123.621 35.7354Z" fill="#263238"/>
<path d="M111.932 47.7654C112.757 47.5108 113.619 47.3992 114.482 47.4354C114.892 47.4354 115.212 47.3654 115.262 47.1454C115.304 46.7444 115.235 46.3395 115.062 45.9754C114.752 44.9754 114.432 43.8754 114.062 42.7654C112.742 38.1854 111.852 34.4154 112.062 34.3554C112.272 34.2954 113.562 37.9454 114.892 42.5154C115.202 43.6354 115.502 44.7054 115.802 45.7554C116.017 46.2904 116.045 46.8824 115.882 47.4354C115.811 47.5855 115.707 47.7171 115.577 47.8196C115.447 47.922 115.294 47.9925 115.132 48.0254C114.9 48.059 114.664 48.059 114.432 48.0254C113.59 48.0755 112.745 47.9877 111.932 47.7654Z" fill="#263238"/>
<path d="M106.761 49.0554C109.132 50.2374 111.618 51.1723 114.181 51.8454C113.588 52.6089 112.757 53.1511 111.819 53.3851C110.881 53.619 109.892 53.5311 109.011 53.1354C105.731 51.6354 106.761 49.0554 106.761 49.0554Z" fill="white"/>
<path d="M111.312 66.6554C106.126 66.331 101.152 64.4839 97.0117 61.3454C97.0117 61.3454 99.8217 69.6454 111.122 69.5454L111.312 66.6554Z" fill="#EB996E"/>
<path d="M83.9016 36.7654C83.9101 36.3288 83.7493 35.9059 83.4529 35.5852C83.1565 35.2646 82.7475 35.0711 82.3116 35.0454C80.2116 34.9454 76.7616 35.7054 76.3116 41.4354C75.6916 49.6354 83.7016 47.7454 83.7316 47.5054C83.7616 47.2654 83.8616 39.9454 83.9016 36.7654Z" fill="#FFBE9D"/>
<path d="M82.0117 44.2454C82.0117 44.2454 81.8617 44.3354 81.6017 44.4354C81.2498 44.5478 80.8688 44.5265 80.5317 44.3754C79.6817 43.9854 79.0417 42.5554 79.1217 41.0754C79.1521 40.3758 79.3402 39.6921 79.6717 39.0754C79.7708 38.8262 79.9291 38.6048 80.133 38.4306C80.3369 38.2564 80.5801 38.1344 80.8417 38.0754C81.0096 38.0405 81.1844 38.0666 81.3348 38.1491C81.4851 38.2316 81.601 38.365 81.6617 38.5254C81.7517 38.7654 81.6617 38.9254 81.7317 38.9354C81.8017 38.9454 81.9217 38.8154 81.8817 38.4754C81.8547 38.2659 81.7514 38.0737 81.5917 37.9354C81.4864 37.8405 81.3631 37.7677 81.2291 37.7213C81.0951 37.675 80.9532 37.6559 80.8117 37.6654C80.4674 37.7036 80.1389 37.8306 79.8584 38.0339C79.578 38.2373 79.3551 38.51 79.2117 38.8254C78.8052 39.5082 78.575 40.2814 78.5417 41.0754C78.4717 42.7254 79.2017 44.3354 80.3717 44.7654C80.5896 44.8481 80.8234 44.8802 81.0555 44.8594C81.2876 44.8387 81.512 44.7655 81.7117 44.6454C81.9517 44.4454 82.0117 44.2654 82.0117 44.2454Z" fill="#EB996E"/>
<path d="M100.911 31.1354C101.261 31.5854 102.481 31.3754 104.061 31.3154C105.641 31.2554 106.891 31.2454 107.171 30.7554C107.451 30.2654 105.971 29.0754 103.931 29.2454C101.891 29.4154 100.511 30.6654 100.911 31.1354Z" fill="#263238"/>
<path d="M118.79 30.8454C118.91 31.4154 119.93 31.6854 121.09 31.8454C122.25 32.0054 123.31 31.8454 123.53 31.3054C123.75 30.7654 122.77 29.9054 121.28 29.7754C119.79 29.6454 118.67 30.2954 118.79 30.8454Z" fill="#263238"/>
<path d="M126.491 21.5254C126.491 21.5254 119.731 24.7954 110.951 20.4054C105.181 17.5254 98.4609 16.1254 96.9509 17.2854C95.4409 18.4454 95.1509 24.3854 89.4409 26.1154C89.4409 26.1154 89.8309 37.4554 85.3109 37.0454C80.7909 36.6354 83.6209 19.0454 83.6209 19.0454L94.6209 13.6454L106.691 11.3654L118.061 12.9654L126.861 15.3754L126.491 21.5254Z" fill="#263238"/>
<path d="M50.8105 87.1354C62.6305 74.9854 83.4205 76.3054 83.4205 76.3054L110.421 77.3054C117.348 78.2483 124.072 80.3297 130.321 83.4654L130.981 83.6754V83.8054C138.551 87.9154 149.261 97.8054 159.461 107.325L147.251 118.645L133.741 130.645C133.769 130.723 133.769 130.808 133.741 130.885C133.601 131.605 135.941 146.125 138.001 158.655C127.921 166.461 115.854 171.284 103.171 172.576C90.4884 173.868 77.6973 171.578 66.2505 165.965L65.2505 154.375C64.3305 143.865 63.6305 130.855 63.6305 130.855" fill="#FFAF48"/>
<path d="M121.25 79.3754C121.341 79.5325 121.412 79.7005 121.46 79.8754C121.6 80.2554 121.77 80.7354 121.97 81.3254C122.41 82.5854 122.97 84.4254 123.71 86.7054C125.12 91.2654 126.93 97.6154 128.64 104.705C130.35 111.795 131.64 118.265 132.47 122.975C132.88 125.325 133.19 127.225 133.38 128.555C133.46 129.165 133.53 129.665 133.58 130.075C133.603 130.255 133.603 130.436 133.58 130.615C133.509 130.45 133.462 130.275 133.44 130.095L133.14 128.585C132.87 127.205 132.51 125.325 132.06 123.035C131.15 118.355 129.8 111.905 128.06 104.825C126.32 97.7454 124.6 91.4054 123.28 86.8254C122.63 84.5954 122.09 82.7554 121.7 81.4054L121.28 79.9254C121.243 79.7446 121.233 79.5592 121.25 79.3754Z" fill="#263238"/>
<path d="M132.351 122.815C132.261 122.705 137.431 118.345 143.891 113.075C150.351 107.805 155.681 103.625 155.771 103.735C155.861 103.845 150.691 108.205 144.221 113.475C137.751 118.745 132.441 122.925 132.351 122.815Z" fill="#263238"/>
<path opacity="0.2" d="M66.4101 103.805L55.8301 138.595L59.7701 140.595L63.6501 130.755C63.6501 130.755 67.6301 110.135 66.4101 103.805Z" fill="black"/>
<g opacity="0.2">
<path opacity="0.2" d="M120.102 79.3954C125.802 82.3954 111.522 89.6354 105.102 89.4454L109.792 77.0754C109.792 77.0754 118.192 78.3854 120.102 79.3954Z" fill="black"/>
</g>
<path d="M81.7207 77.0754V67.8654C81.7207 67.8654 99.7207 72.4954 100.371 83.2654C100.371 83.2654 102.661 71.3654 111.931 70.7854L113.241 87.5254L102.451 96.9154H91.5207L82.8607 89.4454L81.7207 77.8254" fill="#FFAF48"/>
<path d="M104.42 134.905C104.395 134.736 104.395 134.564 104.42 134.395C104.42 133.995 104.42 133.515 104.42 132.925C104.42 131.655 104.48 129.805 104.49 127.535C104.49 122.985 104.38 116.695 103.81 109.775C103.24 102.855 102.33 96.6354 101.55 92.1454C101.17 89.9054 100.84 88.1454 100.55 86.8454C100.45 86.2654 100.36 85.7854 100.29 85.4054C100.249 85.2353 100.232 85.0602 100.24 84.8854C100.307 85.0432 100.357 85.2074 100.39 85.3754C100.49 85.7654 100.61 86.2354 100.75 86.8054C101.05 88.0354 101.44 89.8054 101.88 92.0854C102.994 97.9221 103.799 103.814 104.29 109.735C104.779 115.655 104.956 121.597 104.82 127.535C104.76 129.815 104.68 131.665 104.58 132.935C104.58 133.515 104.5 134.005 104.47 134.395C104.481 134.567 104.464 134.739 104.42 134.905Z" fill="#263238"/>
<path d="M99.5403 80.1354C99.183 80.0641 98.813 80.0918 98.4703 80.2154C98.0695 80.3699 97.7221 80.6374 97.4703 80.9854C97.1333 81.462 96.8515 81.9753 96.6303 82.5154C95.1429 85.7216 93.9901 89.0727 93.1903 92.5154L93.1103 92.8554L92.8103 92.6754C91.7303 92.0254 90.6303 91.3254 89.5203 90.5654C87.4974 89.2 85.5512 87.7244 83.6903 86.1454C82.8389 85.4459 82.1554 84.5642 81.6903 83.5654C81.3306 82.6835 81.1243 81.7467 81.0803 80.7954C81.0439 79.4516 81.1715 78.1083 81.4603 76.7954C81.532 76.3058 81.6595 75.826 81.8403 75.3654C81.8228 75.8564 81.7625 76.3449 81.6603 76.8254C81.4519 78.1478 81.3816 79.4884 81.4503 80.8254C81.5131 81.7245 81.726 82.6067 82.0803 83.4354C82.5317 84.3668 83.184 85.1864 83.9903 85.8354C85.8472 87.3846 87.7831 88.8365 89.7903 90.1854C90.8903 90.9354 91.9903 91.6354 93.0503 92.2854L92.6703 92.4454C93.494 88.9829 94.7155 85.6272 96.3103 82.4454C96.5605 81.893 96.8761 81.3726 97.2503 80.8954C97.5445 80.5326 97.9367 80.2619 98.3803 80.1154C99.1703 79.8554 99.5703 80.1354 99.5403 80.1354Z" fill="#263238"/>
<path d="M111.93 70.7854C112.029 71.2591 112.079 71.7416 112.08 72.2254C112.15 73.2254 112.24 74.5754 112.35 76.1554C112.46 77.7354 112.68 79.7654 113.01 81.9354C113.299 83.0818 113.374 84.2718 113.23 85.4454C112.79 86.6721 111.966 87.7241 110.88 88.4454C109.454 89.3149 108.114 90.3195 106.88 91.4454L106.49 91.8954V91.2954C106.269 88.1335 105.351 85.0599 103.8 82.2954C102.65 80.2454 101.7 79.1954 101.8 79.1454C102.065 79.3532 102.3 79.5953 102.5 79.8654C103.1 80.5778 103.641 81.3368 104.12 82.1354C105.787 84.9036 106.784 88.0233 107.03 91.2454L106.59 91.0954C107.816 89.9298 109.156 88.8912 110.59 87.9954C111.583 87.3494 112.343 86.4035 112.76 85.2954C112.892 84.1861 112.827 83.0624 112.57 81.9754C112.26 79.7854 112.1 77.8054 112.01 76.1454C111.92 74.4854 111.91 73.1454 111.91 72.2054C111.879 71.7323 111.885 71.2574 111.93 70.7854Z" fill="#263238"/>
<path d="M169.851 73.1354C169.121 73.9954 142.631 109.415 142.631 109.415L146.361 111.525L173.541 76.5254L169.851 73.1354Z" fill="#263238"/>
<path d="M63.4314 101.135C63.4314 101.135 91.3014 141.255 92.9814 142.045C96.2814 143.595 134.411 110.645 138.051 107.495C138.551 106.825 139.581 105.415 141.611 102.605C141.611 102.605 144.611 88.8354 147.831 89.8954C151.051 90.9554 146.071 96.8954 148.161 102.115C150.251 107.335 159.831 94.8754 160.161 93.7554L162.631 90.5254C162.631 90.5254 165.221 97.8754 165.041 100.935C164.481 110.755 155.191 122.435 155.191 122.435C155.191 122.435 113.511 174.135 84.9314 175.695C76.7014 176.155 62.0714 152.805 52.2914 135.285C49.4601 130.173 48.5918 124.202 49.8493 118.495C51.1068 112.787 54.4036 107.735 59.1214 104.285L63.4314 101.135Z" fill="#FFBE9D"/>
<path d="M160.4 102.655C160.33 102.605 161.23 101.035 162.22 99.0354C163.21 97.0354 163.91 95.3654 163.99 95.3954C163.65 96.7115 163.15 97.981 162.5 99.1754C161.938 100.413 161.233 101.581 160.4 102.655Z" fill="#EB996E"/>
<path d="M58.7108 81.5254C58.7108 81.5254 28.8008 92.1354 51.0108 142.465L85.5408 121.625L80.6308 109.865L58.7108 81.5254Z" fill="#FFAF48"/>
<path d="M56.421 82.3954H56.661H57.351C58.2514 82.4107 59.1471 82.5281 60.021 82.7454C61.3992 83.1024 62.7169 83.6618 63.931 84.4054C65.5274 85.4008 66.9865 86.601 68.271 87.9754C71.5297 91.6295 74.2596 95.7228 76.381 100.135C78.911 105.025 81.271 110.595 83.691 116.445L85.811 121.565L85.901 121.785L85.691 121.895C75.691 127.345 67.001 132.445 60.861 136.275C57.791 138.185 55.341 139.755 53.661 140.845L51.731 142.095C51.5126 142.251 51.2819 142.388 51.041 142.505C51.2398 142.328 51.4503 142.164 51.671 142.015C52.101 141.715 52.731 141.255 53.551 140.685C55.201 139.545 57.621 137.925 60.681 135.975C66.781 132.075 75.451 126.905 85.451 121.435L85.331 121.765L83.211 116.645C80.791 110.795 78.451 105.235 75.961 100.355C73.856 95.9776 71.1646 91.9068 67.961 88.2554C66.7103 86.8818 65.2848 85.6782 63.721 84.6754C62.5737 83.9164 61.3246 83.3238 60.011 82.9154C58.8319 82.6372 57.6306 82.4632 56.421 82.3954Z" fill="#263238"/>
</svg>
