<svg width="372" height="327" viewBox="0 0 372 327" fill="none" xmlns="http://www.w3.org/2000/svg">
<path d="M329.066 47.3586C319.583 14.5181 277.901 -5.57655 241.778 1.37047C210.268 7.42759 198.814 32.9957 163.39 31.5604C130.387 30.2111 100.58 18.9485 71.5858 45.0238C48.7735 65.5395 50.6012 94.4376 55.644 122.953C69.4615 200.939 115.995 226.096 190.939 203.255C226.755 192.347 269.633 174.481 298.11 149.727C332.214 120.025 340.826 88.1413 329.066 47.3586Z" fill="#FFAF48"/>
<path opacity="0.9" d="M329.066 47.3586C319.583 14.5181 277.901 -5.57655 241.778 1.37047C210.268 7.42759 198.814 32.9957 163.39 31.5604C130.387 30.2111 100.58 18.9485 71.5858 45.0238C48.7735 65.5395 50.6012 94.4376 55.644 122.953C69.4615 200.939 115.995 226.096 190.939 203.255C226.755 192.347 269.633 174.481 298.11 149.727C332.214 120.025 340.826 88.1413 329.066 47.3586Z" fill="white"/>
<path d="M185.531 327C287.998 327 371.063 322.15 371.063 316.168C371.063 310.186 287.998 305.336 185.531 305.336C83.0652 305.336 0 310.186 0 316.168C0 322.15 83.0652 327 185.531 327Z" fill="#F5F5F5"/>
<path d="M132.013 29.0722C132.97 25.0437 142.979 21.2162 151.591 27.1585C155.408 29.7435 158.272 33.5104 159.741 37.8805C161.211 42.2506 161.205 46.9822 159.724 51.3486C155.103 65.0322 179.226 64.525 184.814 87.5956C189.225 105.777 185.139 131.526 160.519 130.129C122.942 127.996 126.185 91.2701 124.54 71.9696C122.894 52.6691 102.388 31.0243 132.013 29.0722Z" fill="#263238"/>
<path d="M119.602 80.6008C119.439 83.395 119.114 85.9499 118.75 88.6004C118.387 91.251 117.879 93.8442 117.315 96.4469C116.75 99.0497 116.109 101.652 115.296 104.217C114.51 106.819 113.577 109.375 112.502 111.872L111.66 113.786C111.535 114.063 111.306 114.484 111.133 114.838C110.961 115.192 110.731 115.518 110.531 115.862C109.744 117.089 108.867 118.257 107.909 119.355C106.126 121.395 104.208 123.313 102.167 125.096C98.2118 128.592 94.0027 131.791 89.5746 134.665L87.0293 131.259C88.8283 129.517 90.6655 127.718 92.4357 125.919C94.206 124.12 95.9571 122.293 97.6221 120.436C99.2625 118.636 100.811 116.755 102.263 114.8C102.926 113.885 103.527 112.926 104.062 111.929C104.167 111.709 104.301 111.48 104.387 111.269C104.473 111.059 104.569 110.886 104.674 110.571L105.325 108.887C106.967 104.263 108.247 99.5181 109.153 94.6958C109.641 92.2653 109.995 89.7966 110.358 87.3373C110.722 84.8781 110.999 82.3424 111.21 80.0076L119.602 80.6008Z" fill="#FFB573"/>
<path d="M113.86 70.5535C110.464 71.4147 108.119 85.4044 108.119 85.4044L121.123 94.2461C121.123 94.2461 126.472 77.6632 123.85 73.9218C121.095 70.0177 118.817 69.2904 113.86 70.5535Z" fill="#FFAF48"/>
<path opacity="0.2" d="M114.167 73.6728L111.555 87.7774L116.818 91.3466L114.167 73.6728Z" fill="black"/>
<path d="M88.5798 130.091L79.8242 131.488L84.8192 137.019C84.8192 137.019 89.9768 135.842 90.8859 132.541L88.5798 130.091Z" fill="#FFB573"/>
<path d="M75.6797 132.589L80.6747 137.995L84.818 137.019L79.823 131.488L75.6797 132.589Z" fill="#FFB573"/>
<path d="M132.251 305.987H124.002L123.447 286.887H131.696L132.251 305.987Z" fill="#FFB573"/>
<path d="M189.283 281.682L181.647 284.801L171.973 268.123L179.609 265.003L189.283 281.682Z" fill="#FFB573"/>
<path d="M180.21 283.653L188.171 278.926C188.308 278.841 188.47 278.809 188.629 278.835C188.787 278.861 188.931 278.945 189.032 279.069L193.683 284.811C193.79 284.96 193.865 285.129 193.903 285.309C193.941 285.488 193.942 285.674 193.905 285.854C193.868 286.033 193.795 286.203 193.689 286.353C193.583 286.503 193.447 286.63 193.29 286.725C190.487 288.323 189.051 288.954 185.549 291.04C183.396 292.322 178.325 296.705 175.349 298.475C172.373 300.245 170.469 297.394 171.521 296.389C175.03 293.218 177.689 289.217 179.253 284.753C179.438 284.289 179.776 283.901 180.21 283.653Z" fill="#263238"/>
<path d="M123.717 305.04H132.989C133.147 305.036 133.301 305.09 133.421 305.193C133.541 305.295 133.619 305.438 133.64 305.595L134.702 312.934C134.721 313.119 134.701 313.305 134.643 313.482C134.585 313.658 134.491 313.821 134.366 313.959C134.242 314.097 134.09 314.207 133.921 314.283C133.751 314.358 133.567 314.398 133.382 314.398C130.147 314.341 128.597 314.149 124.511 314.149C122.004 314.149 116.856 314.407 113.363 314.407C109.871 314.407 109.718 310.991 111.153 310.676C117.622 309.288 120.167 307.374 122.339 305.547C122.724 305.22 123.212 305.04 123.717 305.04Z" fill="#263238"/>
<g opacity="0.2">
<path opacity="0.2" d="M123.457 286.897L123.735 296.743H131.983L131.705 286.897H123.457Z" fill="black"/>
<path opacity="0.2" d="M179.616 265.003L171.971 268.123L176.966 276.725L184.602 273.606L179.616 265.003Z" fill="black"/>
</g>
<path d="M113.859 70.5535C113.859 70.5535 109.926 71.9314 117.801 120.312H151.292C150.728 106.676 150.718 98.3033 157.235 70.2952C152.545 69.3117 147.789 68.6721 143.006 68.3814C137.944 68.0173 132.863 68.0173 127.801 68.3814C121.265 69.0608 113.859 70.5535 113.859 70.5535Z" fill="#FFAF48"/>
<path opacity="0.2" d="M154.471 81.3854C151.437 82.1414 148.634 85.4522 148.969 91.5476C149.157 94.3122 150.126 96.9666 151.763 99.2027C152.299 94.514 153.198 89.0693 154.633 82.1031L154.471 81.3854Z" fill="black"/>
<path d="M129.562 81.816C129.562 81.816 133.916 84.5049 135.055 88.5142C139.782 85.0503 146.203 75.4144 146.461 69.6444C146.462 69.4764 146.43 69.3099 146.367 69.1544C146.304 68.9989 146.21 68.8574 146.092 68.7383C145.974 68.6191 145.833 68.5245 145.678 68.4599C145.523 68.3954 145.356 68.3621 145.189 68.3621C144.46 68.3434 143.731 68.3753 143.007 68.4578L129.562 81.816Z" fill="#FAFAFA"/>
<path d="M129.564 81.8161C129.564 81.8161 125.21 84.505 124.071 88.5144C118.99 84.7921 121.813 72.5056 124.722 68.4197C125.746 68.3117 126.779 68.3117 127.803 68.4197L129.564 81.8161Z" fill="#FAFAFA"/>
<path d="M141.514 51.3104C140.557 56.2001 139.6 65.1662 143.017 68.4388C139.843 74.0485 135.193 78.6816 129.572 81.8352C122.788 76.4192 127.812 68.4388 127.812 68.4388C133.266 67.1374 133.122 63.0802 132.175 59.2813L141.514 51.3104Z" fill="#FFB573"/>
<path opacity="0.2" d="M137.687 54.5638L132.156 59.2812C132.395 60.1644 132.552 61.0677 132.625 61.9797C134.711 61.6735 137.993 59.9032 138.443 57.6354C138.644 56.5637 137.878 55.0709 137.687 54.5638Z" fill="black"/>
<path d="M149.706 43.4447C147.448 51.3104 146.653 54.6882 141.716 57.8938C134.29 62.6782 125.123 58.2 124.989 49.8176C124.865 42.2678 128.587 30.6798 137.104 29.2349C138.979 28.9074 140.907 29.0652 142.704 29.6932C144.501 30.3213 146.107 31.3986 147.37 32.8228C148.633 34.247 149.511 35.9707 149.92 37.8299C150.329 39.6892 150.255 41.622 149.706 43.4447Z" fill="#FFB573"/>
<path d="M132.721 29.9335C133.094 32.5937 147.658 41.1483 150.423 36.6892C153.189 32.2301 149.208 28.8714 143.007 28.0197C139.46 27.4629 135.83 28.1384 132.721 29.9335Z" fill="#263238"/>
<path d="M142.214 31.3783C140.425 33.7323 144.214 50.6884 149.639 49.0904C155.065 47.4924 154.816 42.0668 151.046 37.0623C148.913 34.1337 145.763 32.1068 142.214 31.3783Z" fill="#263238"/>
<path d="M117.804 120.331C117.804 120.331 111.297 183.887 111.852 209.006C112.417 235.167 122.005 294.839 122.005 294.839H133.152C133.152 294.839 131.392 236.698 132.377 211.006C133.449 182.998 142.348 120.331 142.348 120.331H117.804Z" fill="#FFAF48"/>
<path opacity="0.4" d="M117.804 120.331C117.804 120.331 111.297 183.887 111.852 209.006C112.417 235.167 122.005 294.839 122.005 294.839H133.152C133.152 294.839 131.392 236.698 132.377 211.006C133.449 182.998 142.348 120.331 142.348 120.331H117.804Z" fill="black"/>
<path d="M134.1 295.231H121.019L120.062 291.059L134.712 290.552L134.1 295.231Z" fill="#263238"/>
<path opacity="0.2" d="M132.252 136.139C124.022 152.683 130.596 182.873 133.505 194.107C134.998 177.237 137.515 156.616 139.476 141.478C138.223 132.904 136.041 128.503 132.252 136.139Z" fill="black"/>
<path d="M126.645 120.331C126.645 120.331 134.233 186.356 139.964 207.58C146.768 232.756 174.412 275.711 174.412 275.711L184.823 271.462C184.823 271.462 166.977 222.556 161.772 209.264C150.672 180.95 160.174 138.77 151.304 120.274L126.645 120.331Z" fill="#FFAF48"/>
<path opacity="0.4" d="M126.645 120.331C126.645 120.331 134.233 186.356 139.964 207.58C146.768 232.756 174.412 275.711 174.412 275.711L184.823 271.462C184.823 271.462 166.977 222.556 161.772 209.264C150.672 180.95 160.174 138.77 151.304 120.274L126.645 120.331Z" fill="black"/>
<path d="M186.24 271.51L173.322 276.782L170.289 273.29L185.207 266.4L186.24 271.51Z" fill="#263238"/>
<path d="M33.9694 36.2968C25.6361 43.6721 19.677 53.3529 16.8457 64.115C14.0144 74.8771 14.438 86.2371 18.063 96.7584C21.688 107.28 28.3515 116.49 37.211 123.224C46.0704 129.958 56.7278 133.914 67.8355 134.591C78.9432 135.268 90.0022 132.636 99.6141 127.028C109.226 121.42 116.959 113.088 121.835 103.085C126.711 93.0817 128.512 81.8573 127.009 70.831C125.506 59.8046 120.767 49.4717 113.391 41.1387C103.5 29.9671 89.5765 23.1813 74.6828 22.2733C59.7892 21.3654 45.1447 26.4096 33.9694 36.2968ZM102.645 113.901C95.6307 120.107 86.9331 124.094 77.6525 125.357C68.372 126.621 58.9252 125.104 50.5068 120.998C42.0884 116.892 35.0765 110.383 30.3577 102.292C25.639 94.2013 23.4254 84.8931 23.9968 75.5444C24.5682 66.1956 27.899 57.2263 33.568 49.7705C39.2369 42.3148 46.9894 36.7075 55.8452 33.6578C64.7009 30.608 74.2622 30.2528 83.3198 32.637C92.3774 35.0212 100.525 40.0377 106.731 47.0522C110.852 51.7098 114.016 57.1335 116.041 63.0136C118.066 68.8938 118.913 75.1152 118.533 81.3226C118.154 87.5301 116.556 93.6021 113.83 99.1918C111.103 104.782 107.303 109.78 102.645 113.901Z" fill="#263238"/>
<path opacity="0.3" d="M68.6178 121.757C60.0469 121.241 51.8215 118.195 44.9823 113.003C38.143 107.812 32.9971 100.709 30.1956 92.5923C27.3941 84.4758 27.0629 75.7107 29.2438 67.4059C31.4247 59.1011 36.0198 51.6298 42.4477 45.937C48.8757 40.2443 56.8477 36.5859 65.3552 35.4248C73.8627 34.2636 82.5235 35.6519 90.2418 39.4138C97.9602 43.1758 104.389 49.1425 108.716 56.5591C113.043 63.9757 115.072 72.509 114.549 81.0794C113.844 92.5614 108.611 103.294 99.9994 110.921C91.3875 118.548 80.1007 122.445 68.6178 121.757Z" fill="#FFAF48"/>
<g opacity="0.5">
<path opacity="0.5" d="M73.9002 35.1104H73.0868L27.9982 75.0127L27.9408 75.826C27.3558 85.2344 29.8626 94.576 35.0792 102.428L99.4109 45.4256C92.2578 39.3005 83.3003 35.6785 73.9002 35.1104Z" fill="#FAFAFA"/>
<path opacity="0.5" d="M103.611 49.502L38.6094 107.021C40.7802 109.527 43.2333 111.775 45.92 113.719L109.324 57.5782C107.733 54.6771 105.817 51.9675 103.611 49.502Z" fill="#FAFAFA"/>
</g>
<path d="M115.535 120.991L108.129 127.546C107.59 128.021 106.885 128.264 106.168 128.221C105.45 128.178 104.779 127.853 104.301 127.316C103.831 126.775 103.591 126.071 103.634 125.356C103.677 124.64 103.999 123.969 104.531 123.489L111.937 116.934C112.477 116.46 113.183 116.218 113.901 116.263C114.618 116.308 115.288 116.635 115.765 117.173C116.24 117.71 116.482 118.414 116.439 119.13C116.396 119.845 116.071 120.515 115.535 120.991Z" fill="#263238"/>
<path d="M112.806 119.776C118.385 124.685 123.724 129.814 128.997 135.01C134.269 140.205 139.417 145.535 144.508 150.836C149.599 156.138 154.594 161.611 159.55 167.104C164.201 172.845 170.535 177.094 171.483 186.107C171.557 186.828 171.458 187.557 171.195 188.232C170.932 188.907 170.512 189.51 169.97 189.991C169.427 190.471 168.778 190.816 168.076 190.996C167.374 191.176 166.64 191.186 165.933 191.026C157.091 188.988 153.656 182.184 148.527 176.864C143.692 171.282 138.926 165.649 134.231 159.965C129.536 154.281 124.927 148.505 120.404 142.636C115.887 136.78 111.448 130.857 107.247 124.723C106.708 123.972 106.466 123.048 106.568 122.129C106.67 121.21 107.108 120.361 107.799 119.746C108.49 119.132 109.384 118.795 110.308 118.8C111.233 118.805 112.123 119.153 112.806 119.776Z" fill="#263238"/>
<path d="M136.52 42.7366C136.376 43.3873 135.917 43.837 135.486 43.6935C135.056 43.55 134.836 42.995 134.979 42.3538C135.123 41.7127 135.582 41.2534 136.013 41.3969C136.443 41.5405 136.663 42.0859 136.52 42.7366Z" fill="#263238"/>
<path d="M129.181 41.1099C129.038 41.7606 128.569 42.2103 128.148 42.1146C127.727 42.019 127.497 41.4161 127.64 40.7654C127.784 40.1147 128.243 39.665 128.674 39.7607C129.104 39.8564 129.325 40.4592 129.181 41.1099Z" fill="#263238"/>
<path d="M128.855 39.8373L127.391 39.043C127.391 39.043 127.917 40.4401 128.855 39.8373Z" fill="#263238"/>
<path d="M131.182 42.7846C130.274 44.1353 129.186 45.3555 127.947 46.4113C128.225 46.7226 128.568 46.9695 128.952 47.1348C129.335 47.3 129.75 47.3797 130.167 47.3681L131.182 42.7846Z" fill="#ED893E"/>
<path d="M133.14 50.6885C132.818 50.6658 132.498 50.6178 132.184 50.5449C132.159 50.5393 132.136 50.5289 132.115 50.5143C132.095 50.4997 132.078 50.4812 132.064 50.4599C132.051 50.4385 132.042 50.4148 132.038 50.39C132.034 50.3652 132.034 50.3398 132.04 50.3153C132.046 50.2908 132.056 50.2677 132.071 50.2472C132.085 50.2267 132.104 50.2093 132.125 50.196C132.146 50.1826 132.17 50.1737 132.195 50.1695C132.22 50.1653 132.245 50.1661 132.27 50.1718C133.074 50.367 133.913 50.3709 134.719 50.1831C135.525 49.9953 136.276 49.6211 136.911 49.0905C136.927 49.0651 136.948 49.0437 136.974 49.0279C137 49.012 137.028 49.0021 137.058 48.9988C137.088 48.9956 137.118 48.9991 137.147 49.009C137.175 49.019 137.201 49.0352 137.222 49.0565C137.243 49.0778 137.26 49.1035 137.27 49.1319C137.28 49.1603 137.283 49.1905 137.28 49.2204C137.277 49.2503 137.267 49.2791 137.251 49.3046C137.235 49.3301 137.213 49.3518 137.188 49.368C136.634 49.845 135.992 50.2074 135.297 50.4341C134.602 50.6608 133.869 50.7472 133.14 50.6885Z" fill="#263238"/>
<path d="M150.233 51.2913C149.792 51.9421 149.227 52.4994 148.57 52.9313C147.913 53.3632 147.177 53.6611 146.405 53.808C144.338 54.1907 143.534 52.2961 144.233 50.4493C144.884 48.7843 146.759 46.6217 148.75 47.0427C149.183 47.1504 149.583 47.3644 149.913 47.6652C150.243 47.9661 150.493 48.3444 150.64 48.766C150.787 49.1877 150.827 49.6393 150.756 50.0802C150.685 50.5211 150.505 50.9373 150.233 51.2913Z" fill="#FFB573"/>
<path d="M139.6 39.8757C139.523 39.8993 139.439 39.8982 139.362 39.8725C139.285 39.8468 139.218 39.7977 139.17 39.7321C138.108 38.2681 135.773 38.2872 135.754 38.2872C135.65 38.2872 135.55 38.2459 135.476 38.1723C135.403 38.0988 135.361 37.999 135.361 37.8949C135.36 37.8439 135.369 37.7931 135.388 37.7455C135.406 37.698 135.434 37.6546 135.47 37.6181C135.506 37.5815 135.548 37.5524 135.595 37.5326C135.643 37.5128 135.693 37.5026 135.744 37.5026C135.859 37.5026 138.5 37.5026 139.801 39.2728C139.862 39.3568 139.887 39.4611 139.871 39.5633C139.854 39.6654 139.799 39.757 139.715 39.8183L139.6 39.8757Z" fill="#263238"/>
<path d="M127.649 35.7322C127.581 35.7273 127.516 35.7055 127.459 35.6687C127.402 35.6319 127.355 35.5813 127.323 35.5216C127.277 35.429 127.268 35.3216 127.301 35.2229C127.333 35.1243 127.403 35.0425 127.496 34.9954C128.043 34.702 128.651 34.5429 129.272 34.5312C129.893 34.5196 130.507 34.6557 131.065 34.9284C131.153 34.9821 131.217 35.0678 131.244 35.1676C131.271 35.2673 131.258 35.3736 131.208 35.4642C131.156 35.5543 131.071 35.62 130.97 35.647C130.87 35.6739 130.762 35.6598 130.672 35.6078C130.228 35.3983 129.741 35.297 129.251 35.3119C128.76 35.3269 128.28 35.4578 127.85 35.6939C127.786 35.7204 127.718 35.7335 127.649 35.7322Z" fill="#263238"/>
<path d="M177.044 286.782H176.92C176.735 286.74 176.564 286.65 176.423 286.523C176.282 286.396 176.176 286.235 176.116 286.055C176.062 285.949 176.038 285.831 176.047 285.713C176.055 285.595 176.095 285.482 176.164 285.385C176.766 284.524 179.752 284.629 180.087 284.648C180.125 284.647 180.163 284.658 180.194 284.681C180.226 284.703 180.248 284.735 180.259 284.772C180.272 284.808 180.274 284.847 180.266 284.885C180.257 284.922 180.238 284.956 180.211 284.983C179.474 285.71 178.068 286.906 177.044 286.782ZM179.628 285.012C178.431 285.012 176.833 285.146 176.518 285.595C176.492 285.64 176.478 285.692 176.478 285.744C176.478 285.796 176.492 285.847 176.518 285.892C176.557 286.012 176.625 286.121 176.717 286.208C176.809 286.295 176.922 286.357 177.044 286.39C177.589 286.514 178.537 285.988 179.628 285.012Z" fill="#FFAF48"/>
<path d="M179.79 285.012C178.766 284.887 176.92 284.189 176.671 283.385C176.62 283.238 176.62 283.079 176.672 282.932C176.725 282.786 176.825 282.662 176.958 282.581C177.075 282.488 177.211 282.422 177.357 282.387C177.502 282.353 177.653 282.35 177.8 282.38C178.977 282.61 180.202 284.648 180.259 284.734C180.274 284.764 180.281 284.797 180.281 284.83C180.281 284.863 180.274 284.896 180.259 284.926C180.241 284.955 180.216 284.979 180.186 284.996C180.155 285.013 180.121 285.022 180.087 285.021C179.988 285.027 179.889 285.024 179.79 285.012ZM177.676 282.754C177.505 282.734 177.333 282.782 177.197 282.887C176.996 283.041 177.006 283.165 177.044 283.251C177.235 283.797 178.719 284.476 179.714 284.61C179.274 283.95 178.432 282.897 177.733 282.763L177.676 282.754Z" fill="#FFAF48"/>
<path d="M120.624 306.475C119.919 306.541 119.213 306.362 118.625 305.967C118.491 305.85 118.388 305.701 118.326 305.534C118.265 305.367 118.245 305.187 118.271 305.011C118.275 304.904 118.307 304.799 118.364 304.709C118.421 304.618 118.501 304.544 118.596 304.494C119.61 303.929 122.902 305.613 123.265 305.805C123.301 305.824 123.33 305.853 123.349 305.889C123.368 305.925 123.375 305.966 123.371 306.006C123.367 306.046 123.35 306.084 123.322 306.113C123.294 306.143 123.258 306.162 123.218 306.168C122.365 306.353 121.497 306.456 120.624 306.475ZM119.151 304.771C119.026 304.764 118.901 304.787 118.787 304.838C118.749 304.86 118.718 304.89 118.694 304.927C118.671 304.964 118.657 305.006 118.653 305.049C118.639 305.165 118.652 305.283 118.692 305.392C118.732 305.502 118.797 305.601 118.883 305.68C119.381 306.13 120.739 306.207 122.567 305.9C121.5 305.334 120.345 304.953 119.151 304.771Z" fill="#FFAF48"/>
<path d="M123.182 306.188H123.106C122.149 305.748 120.178 303.968 120.331 303.03C120.331 302.81 120.522 302.532 121.058 302.475C121.252 302.454 121.449 302.474 121.635 302.533C121.821 302.593 121.993 302.69 122.139 302.82C123.182 303.681 123.374 305.901 123.374 305.996C123.379 306.029 123.375 306.063 123.361 306.094C123.347 306.124 123.325 306.15 123.297 306.169C123.262 306.187 123.222 306.194 123.182 306.188ZM121.221 302.839H121.096C120.742 302.839 120.723 303.02 120.713 303.068C120.618 303.623 121.938 305.03 122.943 305.633C122.866 304.695 122.498 303.806 121.89 303.087C121.708 302.921 121.468 302.832 121.221 302.839Z" fill="#FFAF48"/>
<path d="M136.195 41.4735L134.73 40.6697C134.73 40.6697 135.257 42.0668 136.195 41.4735Z" fill="#263238"/>
<path d="M151.802 118.36L152.654 121.355C152.769 121.594 152.501 121.833 152.108 121.833H117.593C117.297 121.833 117.048 121.68 117.029 121.489L116.723 118.494C116.723 118.283 116.962 118.111 117.297 118.111H151.219C151.329 118.094 151.443 118.108 151.546 118.152C151.649 118.196 151.738 118.268 151.802 118.36Z" fill="#FFAF48"/>
<path opacity="0.2" d="M151.802 118.36L152.654 121.355C152.769 121.594 152.501 121.833 152.108 121.833H117.593C117.297 121.833 117.048 121.68 117.029 121.489L116.723 118.494C116.723 118.283 116.962 118.111 117.297 118.111H151.219C151.329 118.094 151.443 118.108 151.546 118.152C151.649 118.196 151.738 118.268 151.802 118.36Z" fill="black"/>
<path d="M147.131 122.149H148.04C148.222 122.149 148.356 122.063 148.347 121.948L147.916 118.054C147.916 117.939 147.744 117.843 147.571 117.843H146.615C146.433 117.843 146.289 117.939 146.308 118.054L146.729 121.948C146.787 122.063 146.949 122.149 147.131 122.149Z" fill="#FFAF48"/>
<path opacity="0.4" d="M147.131 122.149H148.04C148.222 122.149 148.356 122.063 148.347 121.948L147.916 118.054C147.916 117.939 147.744 117.843 147.571 117.843H146.615C146.433 117.843 146.289 117.939 146.308 118.054L146.729 121.948C146.787 122.063 146.949 122.149 147.131 122.149Z" fill="white"/>
<path d="M120.186 122.149H121.095C121.277 122.149 121.411 122.063 121.401 121.948L120.98 118.054C120.98 117.939 120.808 117.843 120.626 117.843H119.717C119.535 117.843 119.401 117.939 119.411 118.054L119.832 121.948C119.851 122.063 120.004 122.149 120.186 122.149Z" fill="#FFAF48"/>
<path opacity="0.4" d="M120.186 122.149H121.095C121.277 122.149 121.411 122.063 121.401 121.948L120.98 118.054C120.98 117.939 120.808 117.843 120.626 117.843H119.717C119.535 117.843 119.401 117.939 119.411 118.054L119.832 121.948C119.851 122.063 120.004 122.149 120.186 122.149Z" fill="white"/>
<path d="M133.601 122.149H134.558C134.739 122.149 134.873 122.063 134.864 121.948L134.443 118.054C134.443 117.939 134.271 117.843 134.089 117.843H133.18C132.998 117.843 132.864 117.939 132.874 118.054L133.295 121.948C133.266 122.063 133.419 122.149 133.601 122.149Z" fill="#FFAF48"/>
<path opacity="0.4" d="M133.601 122.149H134.558C134.739 122.149 134.873 122.063 134.864 121.948L134.443 118.054C134.443 117.939 134.271 117.843 134.089 117.843H133.18C132.998 117.843 132.864 117.939 132.874 118.054L133.295 121.948C133.266 122.063 133.419 122.149 133.601 122.149Z" fill="white"/>
<path d="M131.171 127.01L123.037 123.374L125.353 131.44C125.353 131.44 130.52 132.608 132.769 130.015L131.171 127.01Z" fill="#FFB573"/>
<path d="M161.142 80.2468C161.515 83.0696 161.812 85.9116 162.147 88.7344L163.008 97.2507C163.314 100.121 163.544 102.925 163.812 105.767L164.166 110.025L164.261 111.097C164.261 111.202 164.261 111.642 164.261 111.949C164.261 112.255 164.261 112.609 164.261 112.905C164.119 114.122 163.731 115.297 163.123 116.36C162.137 117.997 160.836 119.422 159.295 120.551C158.003 121.525 156.633 122.393 155.2 123.144C152.519 124.529 149.732 125.697 146.865 126.637C144.061 127.594 141.248 128.388 138.425 129.096C135.603 129.804 132.78 130.388 129.861 130.838L128.904 126.771C131.536 125.9 134.225 125.01 136.837 124.005C139.449 123.001 142.062 122.015 144.569 120.876C147.036 119.796 149.428 118.549 151.726 117.144C152.786 116.505 153.791 115.778 154.731 114.972C155.468 114.375 156.082 113.641 156.539 112.81C156.639 112.628 156.692 112.424 156.692 112.216C156.692 112.216 156.692 112.216 156.692 112.14C156.692 112.063 156.692 112.14 156.692 111.929L156.539 110.877L155.927 106.638C155.554 103.767 155.133 100.983 154.788 98.1502L153.707 89.6626C153.401 86.7919 153.047 83.9978 152.75 81.1558L161.142 80.2468Z" fill="#FFB573"/>
<path d="M157.235 70.3142C160.584 71.3285 164.622 82.8878 164.622 82.8878L152.881 94.9733C152.881 94.9733 146.853 82.5337 148.26 78.2086C149.733 73.6921 153.408 69.1468 157.235 70.3142Z" fill="#FFAF48"/>
<path d="M116.311 125.048L118.607 131.689L125.353 131.44L123.037 123.374L116.311 125.048Z" fill="#FFB573"/>
<path d="M229.892 101.232C232.093 85.5003 221.108 72.7449 205.377 72.7449H320.319C336.059 72.7449 347.035 85.5003 344.844 101.232H229.892Z" fill="#263238"/>
<path opacity="0.7" d="M229.892 101.232C232.093 85.5003 221.108 72.7449 205.377 72.7449H320.319C336.059 72.7449 347.035 85.5003 344.844 101.232H229.892Z" fill="#FFAF48"/>
<path d="M205.378 72.7449H320.319C304.588 72.7449 290.053 85.5003 287.862 101.232L261.873 287.672C259.681 303.413 245.146 316.168 229.415 316.168H171.446C155.715 316.168 144.74 303.413 146.931 287.672L172.91 101.232C175.111 85.5003 189.637 72.7449 205.378 72.7449Z" fill="#FFAF48"/>
<path d="M204.888 287.672C202.697 303.413 213.672 316.168 229.413 316.168H114.462C98.7308 316.168 87.7553 303.413 89.9465 287.672H204.888Z" fill="#263238"/>
<path opacity="0.7" d="M204.888 287.672C202.697 303.413 213.672 316.168 229.413 316.168H114.462C98.7308 316.168 87.7553 303.413 89.9465 287.672H204.888Z" fill="#FFAF48"/>
<path opacity="0.4" d="M223.318 130.742H267.823C268.471 130.712 269.09 130.462 269.579 130.035C270.067 129.607 270.396 129.027 270.512 128.388C270.563 128.095 270.548 127.794 270.469 127.507C270.39 127.22 270.249 126.954 270.055 126.728C269.861 126.502 269.62 126.322 269.348 126.201C269.076 126.079 268.781 126.019 268.483 126.025H223.978C223.326 126.045 222.7 126.292 222.21 126.724C221.719 127.155 221.394 127.743 221.29 128.388C221.239 128.681 221.253 128.982 221.332 129.268C221.411 129.555 221.553 129.82 221.747 130.045C221.941 130.27 222.183 130.45 222.454 130.57C222.726 130.691 223.021 130.749 223.318 130.742Z" fill="white"/>
<path opacity="0.4" d="M222.094 139.517H254.81C255.461 139.497 256.085 139.251 256.576 138.822C257.066 138.392 257.392 137.806 257.499 137.163C257.55 136.87 257.535 136.569 257.456 136.283C257.377 135.996 257.235 135.731 257.041 135.506C256.847 135.281 256.606 135.101 256.334 134.981C256.062 134.86 255.767 134.802 255.47 134.809H222.754C222.102 134.827 221.477 135.072 220.986 135.502C220.495 135.932 220.169 136.519 220.065 137.163C220.014 137.456 220.029 137.756 220.108 138.043C220.187 138.329 220.328 138.595 220.522 138.82C220.716 139.045 220.958 139.224 221.23 139.345C221.501 139.465 221.796 139.524 222.094 139.517Z" fill="white"/>
<path opacity="0.4" d="M203.64 140.904C209.796 135.161 210.736 126.164 205.74 120.808C200.744 115.452 191.703 115.765 185.547 121.508C179.391 127.251 178.451 136.248 183.447 141.604C188.443 146.96 197.484 146.647 203.64 140.904Z" fill="white"/>
<path d="M181.902 131.259C181.595 133.3 181.832 135.386 182.591 137.306C183.417 139.326 184.84 141.045 186.67 142.234C188.5 143.422 190.649 144.023 192.83 143.957C195.23 143.9 197.582 143.265 199.685 142.108C201.789 140.95 203.583 139.303 204.915 137.306C206.162 135.5 206.974 133.431 207.289 131.259C208.245 124.254 203.375 118.57 196.361 118.57C192.851 118.671 189.485 119.993 186.846 122.31C184.206 124.626 182.458 127.791 181.902 131.259Z" fill="white"/>
<path opacity="0.4" d="M185.359 136.043C185.992 137.591 187.083 138.909 188.485 139.821C189.887 140.732 191.534 141.194 193.206 141.143C195.049 141.101 196.854 140.615 198.47 139.727C200.085 138.84 201.464 137.576 202.488 136.043C200.103 134.322 197.228 133.413 194.287 133.45C191.129 133.477 188.04 134.374 185.359 136.043Z" fill="#263238"/>
<path opacity="0.4" d="M190.687 128.101C190.59 128.642 190.615 129.197 190.76 129.727C190.904 130.257 191.165 130.747 191.524 131.164C191.882 131.58 192.329 131.911 192.831 132.132C193.334 132.354 193.879 132.461 194.428 132.445C195.629 132.411 196.78 131.958 197.681 131.164C198.583 130.371 199.179 129.287 199.366 128.101C199.463 127.562 199.438 127.008 199.294 126.479C199.15 125.95 198.89 125.46 198.532 125.045C198.174 124.63 197.729 124.3 197.227 124.078C196.726 123.857 196.182 123.751 195.634 123.766C194.434 123.8 193.283 124.251 192.38 125.043C191.477 125.834 190.878 126.916 190.687 128.101Z" fill="#263238"/>
<path opacity="0.4" d="M217.978 169.085H232.992C233.643 169.064 234.268 168.819 234.758 168.389C235.249 167.96 235.575 167.374 235.681 166.731C235.732 166.438 235.717 166.137 235.638 165.851C235.559 165.564 235.417 165.299 235.223 165.074C235.029 164.849 234.788 164.669 234.516 164.549C234.244 164.428 233.949 164.369 233.652 164.377H218.629C217.978 164.395 217.354 164.641 216.865 165.071C216.376 165.5 216.052 166.088 215.95 166.731C215.899 167.023 215.913 167.324 215.992 167.61C216.071 167.897 216.213 168.162 216.407 168.388C216.601 168.613 216.843 168.792 217.114 168.913C217.386 169.033 217.681 169.092 217.978 169.085Z" fill="white"/>
<path opacity="0.4" d="M242.053 169.085H263.506C264.158 169.065 264.782 168.819 265.272 168.389C265.763 167.96 266.089 167.374 266.195 166.731C266.248 166.438 266.235 166.136 266.156 165.849C266.078 165.562 265.936 165.296 265.742 165.07C265.547 164.845 265.305 164.665 265.032 164.545C264.76 164.425 264.464 164.368 264.166 164.377H242.713C242.061 164.395 241.436 164.64 240.945 165.07C240.454 165.499 240.128 166.087 240.024 166.731C239.973 167.024 239.988 167.324 240.067 167.611C240.146 167.897 240.287 168.162 240.481 168.388C240.675 168.613 240.917 168.792 241.189 168.913C241.46 169.033 241.755 169.092 242.053 169.085Z" fill="white"/>
<path opacity="0.4" d="M216.754 177.869H253.527C254.18 177.848 254.805 177.601 255.296 177.17C255.786 176.739 256.112 176.15 256.216 175.505C256.267 175.213 256.252 174.912 256.173 174.626C256.094 174.339 255.952 174.074 255.758 173.849C255.564 173.623 255.323 173.444 255.051 173.324C254.779 173.203 254.484 173.144 254.187 173.151H217.404C216.754 173.174 216.132 173.421 215.644 173.85C215.155 174.279 214.831 174.864 214.725 175.505C214.672 175.799 214.686 176.101 214.764 176.388C214.842 176.676 214.984 176.943 215.178 177.169C215.372 177.395 215.614 177.575 215.887 177.696C216.159 177.818 216.455 177.876 216.754 177.869Z" fill="white"/>
<path opacity="0.4" d="M198.3 179.251C204.456 173.508 205.396 164.511 200.4 159.155C195.404 153.799 186.363 154.112 180.207 159.855C174.051 165.597 173.111 174.594 178.107 179.95C183.104 185.306 192.144 184.993 198.3 179.251Z" fill="white"/>
<path d="M176.554 169.534C176.249 171.576 176.49 173.663 177.253 175.582C178.071 177.599 179.485 179.319 181.306 180.512C183.126 181.706 185.267 182.316 187.444 182.261C189.844 182.205 192.196 181.572 194.3 180.414C196.404 179.257 198.198 177.609 199.529 175.611C200.784 173.808 201.6 171.737 201.912 169.563C202.869 162.559 197.998 156.875 190.984 156.875C187.483 156.981 184.128 158.302 181.495 160.612C178.862 162.922 177.115 166.077 176.554 169.534Z" fill="white"/>
<path opacity="0.4" d="M180.008 174.415C180.642 175.963 181.734 177.282 183.138 178.193C184.542 179.105 186.191 179.566 187.864 179.515C189.705 179.471 191.509 178.984 193.123 178.097C194.736 177.209 196.113 175.946 197.136 174.415C194.752 172.692 191.877 171.783 188.936 171.821C185.778 171.851 182.69 172.748 180.008 174.415Z" fill="#263238"/>
<path opacity="0.4" d="M185.347 166.444C185.25 166.983 185.275 167.538 185.419 168.067C185.563 168.596 185.824 169.086 186.181 169.502C186.538 169.918 186.984 170.25 187.485 170.472C187.986 170.694 188.531 170.802 189.079 170.788C190.281 170.754 191.433 170.301 192.336 169.508C193.239 168.715 193.837 167.631 194.026 166.444C194.123 165.904 194.099 165.35 193.954 164.822C193.81 164.293 193.55 163.803 193.192 163.388C192.835 162.973 192.389 162.642 191.888 162.421C191.386 162.2 190.842 162.093 190.294 162.109C189.094 162.143 187.943 162.594 187.04 163.385C186.137 164.177 185.538 165.258 185.347 166.444Z" fill="#263238"/>
<path opacity="0.4" d="M212.628 207.437H238.78C239.433 207.416 240.058 207.169 240.549 206.738C241.04 206.307 241.365 205.718 241.469 205.073C241.52 204.78 241.506 204.48 241.426 204.193C241.347 203.907 241.206 203.642 241.012 203.416C240.818 203.191 240.576 203.012 240.304 202.891C240.033 202.771 239.738 202.712 239.44 202.719H213.279C212.628 202.739 212.003 202.985 211.513 203.415C211.022 203.844 210.696 204.43 210.59 205.073C210.537 205.368 210.551 205.67 210.63 205.958C210.709 206.247 210.851 206.514 211.046 206.741C211.242 206.967 211.485 207.147 211.759 207.267C212.032 207.388 212.329 207.446 212.628 207.437Z" fill="white"/>
<path opacity="0.4" d="M211.365 216.212H252.138C252.788 216.18 253.407 215.93 253.896 215.5C254.384 215.071 254.713 214.488 254.827 213.848C254.876 213.555 254.86 213.254 254.78 212.968C254.7 212.681 254.557 212.416 254.362 212.191C254.167 211.966 253.925 211.787 253.653 211.666C253.381 211.546 253.086 211.487 252.789 211.494H212.025C211.374 211.514 210.749 211.76 210.259 212.189C209.768 212.619 209.442 213.205 209.336 213.848C209.284 214.142 209.297 214.443 209.375 214.731C209.454 215.019 209.595 215.285 209.789 215.512C209.984 215.738 210.226 215.918 210.498 216.039C210.771 216.16 211.067 216.219 211.365 216.212Z" fill="white"/>
<path opacity="0.2" d="M166.765 253.568H229.193C230.107 253.538 230.983 253.192 231.671 252.588C232.358 251.984 232.815 251.161 232.963 250.258C233.036 249.845 233.016 249.421 232.904 249.016C232.792 248.612 232.591 248.238 232.316 247.922C232.04 247.605 231.698 247.354 231.313 247.187C230.929 247.02 230.512 246.941 230.092 246.956H167.684C166.771 246.983 165.896 247.327 165.209 247.93C164.523 248.532 164.068 249.356 163.923 250.258C163.849 250.669 163.868 251.091 163.978 251.495C164.087 251.898 164.285 252.271 164.557 252.589C164.83 252.906 165.169 253.158 165.551 253.328C165.933 253.497 166.348 253.579 166.765 253.568Z" fill="white"/>
<path opacity="0.2" d="M165.053 265.874H210.927C211.841 265.846 212.716 265.499 213.403 264.895C214.089 264.291 214.543 263.466 214.687 262.563C214.76 262.15 214.74 261.726 214.628 261.322C214.516 260.918 214.315 260.544 214.04 260.228C213.765 259.911 213.422 259.66 213.038 259.493C212.653 259.326 212.236 259.247 211.817 259.262H165.972C165.058 259.29 164.183 259.634 163.495 260.237C162.807 260.839 162.35 261.661 162.202 262.563C162.138 262.974 162.164 263.393 162.279 263.793C162.393 264.192 162.592 264.562 162.864 264.877C163.135 265.192 163.471 265.444 163.849 265.616C164.227 265.788 164.638 265.876 165.053 265.874Z" fill="white"/>
<path opacity="0.2" d="M188.468 102.944H262.905C263.372 102.924 263.819 102.742 264.167 102.43C264.516 102.117 264.746 101.694 264.819 101.232C264.856 101.019 264.845 100.801 264.787 100.594C264.73 100.386 264.627 100.194 264.486 100.031C264.345 99.8677 264.169 99.738 263.972 99.6512C263.775 99.5643 263.56 99.5224 263.345 99.5284H188.947C188.482 99.5523 188.039 99.7341 187.691 100.044C187.343 100.353 187.111 100.772 187.033 101.232C186.997 101.441 187.007 101.656 187.062 101.862C187.118 102.067 187.217 102.258 187.354 102.421C187.49 102.584 187.661 102.715 187.853 102.806C188.046 102.896 188.256 102.943 188.468 102.944Z" fill="white"/>
<path opacity="0.4" d="M192.955 217.597C199.111 211.854 200.051 202.857 195.054 197.501C190.058 192.145 181.017 192.458 174.861 198.201C168.705 203.943 167.765 212.941 172.762 218.297C177.758 223.653 186.799 223.339 192.955 217.597Z" fill="white"/>
<path d="M171.177 207.915C170.87 209.957 171.108 212.043 171.866 213.963C172.695 215.98 174.119 217.696 175.948 218.883C177.778 220.069 179.926 220.67 182.105 220.604C184.504 220.547 186.855 219.914 188.958 218.758C191.062 217.602 192.856 215.958 194.191 213.963C195.436 212.156 196.248 210.087 196.564 207.915C197.521 200.901 192.65 195.217 185.636 195.217C182.124 195.318 178.758 196.642 176.118 198.961C173.478 201.279 171.731 204.446 171.177 207.915Z" fill="white"/>
<path opacity="0.4" d="M174.67 212.767C175.304 214.316 176.397 215.634 177.8 216.545C179.204 217.457 180.853 217.918 182.526 217.867C184.367 217.823 186.171 217.336 187.785 216.449C189.398 215.561 190.775 214.298 191.798 212.767C189.416 211.041 186.539 210.131 183.598 210.174C180.439 210.196 177.349 211.094 174.67 212.767Z" fill="#263238"/>
<path opacity="0.4" d="M180 204.796C179.904 205.336 179.93 205.89 180.076 206.419C180.221 206.947 180.483 207.437 180.841 207.852C181.199 208.267 181.645 208.597 182.147 208.818C182.649 209.039 183.193 209.146 183.741 209.131C184.94 209.096 186.09 208.645 186.991 207.853C187.893 207.062 188.49 205.98 188.679 204.796C188.775 204.256 188.751 203.702 188.607 203.172C188.462 202.643 188.202 202.153 187.845 201.737C187.488 201.321 187.042 200.99 186.541 200.768C186.039 200.545 185.495 200.437 184.947 200.452C183.745 200.486 182.593 200.938 181.69 201.732C180.787 202.525 180.189 203.609 180 204.796Z" fill="#263238"/>
</svg>
