<svg width="341" height="327" viewBox="0 0 341 327" fill="none" xmlns="http://www.w3.org/2000/svg">
<path d="M5.80021 151.859L58.4209 146.28L52.6779 95.1665L0 100.237L0.716054 104.203L2.28927 103.645C3.32908 103.594 3.79561 104.263 3.94123 105.294C3.94439 105.316 3.94724 105.338 3.94977 105.361C4.0673 106.403 3.82489 107.379 2.79924 107.599L0.813633 107.478L1.21772 111.074C1.21772 111.074 4.71236 110.273 4.87349 112.499C4.87349 112.499 4.72107 114.558 1.58342 114.329L1.9204 117.328C1.9204 117.328 5.41053 116.374 5.6049 118.679C5.76982 120.636 3.73895 120.779 2.31467 120.837L2.67025 124.002C2.67025 124.002 6.14495 123.287 6.0962 125.646C6.04745 128.006 3.07069 127.566 3.07069 127.566L3.52337 131.594C3.52337 131.594 6.73541 130.186 7.00527 132.587C7.27514 134.989 4.69044 134.812 3.86335 134.62L4.20753 137.683C4.20753 137.683 7.48494 136.281 7.63768 139.366C7.75227 141.681 4.5506 140.737 4.5506 140.737L5.0294 144.998C5.0294 144.998 8.24563 143.626 8.50378 145.924C8.68738 147.558 6.71665 148.339 5.31667 147.555L5.80021 151.859Z" fill="white"/>
<path d="M45.297 91.4477L13.75 92.5948L14.064 101.23L45.611 100.083L45.297 91.4477Z" fill="#E0E0E0"/>
<path d="M46.2245 108.606C45.798 108.696 45.3648 108.749 44.9294 108.767C44.022 108.84 42.8289 108.936 41.3879 109.052C38.3963 109.275 34.262 109.554 29.6942 109.837C25.1248 110.12 20.9872 110.353 17.9911 110.501C16.5467 110.564 15.351 110.615 14.4416 110.655C14.0074 110.691 13.571 110.691 13.1367 110.655C13.5632 110.566 13.9964 110.513 14.4318 110.495C15.3389 110.422 16.532 110.326 17.973 110.21C20.9646 109.987 25.0994 109.708 29.6687 109.425C34.2365 109.142 38.3737 108.909 41.3698 108.761C42.8143 108.698 44.0101 108.647 44.9195 108.607C45.3537 108.571 45.7902 108.571 46.2245 108.606Z" fill="#E0E0E0"/>
<path d="M47.4824 115.015C47.0558 115.104 46.6226 115.158 46.1872 115.176C45.2798 115.248 44.0867 115.344 42.6457 115.46C39.6541 115.683 35.5198 115.962 30.952 116.245C26.3826 116.528 22.245 116.761 19.2489 116.909C17.8045 116.972 16.6088 117.024 15.6995 117.063C15.2652 117.1 14.8288 117.1 14.3945 117.064C14.821 116.975 15.2542 116.921 15.6896 116.903C16.5967 116.83 17.7898 116.734 19.2308 116.618C22.2224 116.396 26.3572 116.117 30.9265 115.834C35.4943 115.551 39.6315 115.318 42.6276 115.17C44.0721 115.107 45.268 115.055 46.1773 115.015C46.6116 114.979 47.0481 114.979 47.4824 115.015Z" fill="#E0E0E0"/>
<path d="M47.9414 121.595C47.5148 121.684 47.0816 121.738 46.6462 121.756C45.7388 121.829 44.5457 121.925 43.1047 122.041C40.1131 122.263 35.9788 122.542 31.411 122.825C26.8416 123.108 22.704 123.341 19.7079 123.489C18.2635 123.552 17.0678 123.604 16.1584 123.644C15.7242 123.68 15.2878 123.68 14.8535 123.644C15.28 123.555 15.7132 123.501 16.1486 123.483C17.0557 123.41 18.2488 123.314 19.6898 123.198C22.6814 122.976 26.8162 122.697 31.3855 122.414C35.9533 122.131 40.0905 121.898 43.0867 121.75C44.5311 121.687 45.7269 121.635 46.6363 121.595C47.0706 121.559 47.5071 121.559 47.9414 121.595Z" fill="#E0E0E0"/>
<path d="M48.7421 128.175C48.3156 128.264 47.8824 128.318 47.4469 128.336C46.5396 128.409 45.3465 128.505 43.9054 128.621C40.9139 128.843 36.7796 129.122 32.2118 129.405C27.6424 129.688 23.5048 129.921 20.5086 130.069C19.0643 130.132 17.8685 130.184 16.9592 130.224C16.525 130.26 16.0885 130.26 15.6543 130.224C16.0808 130.135 16.514 130.081 16.9493 130.063C17.8565 129.991 19.0495 129.895 20.4906 129.779C23.4821 129.556 27.6169 129.277 32.1863 128.994C36.7541 128.711 40.8913 128.478 43.8874 128.33C45.3318 128.267 46.5277 128.215 47.437 128.176C47.8713 128.139 48.3078 128.139 48.7421 128.175Z" fill="#E0E0E0"/>
<path d="M50.5723 135.265C50.1457 135.354 49.7125 135.408 49.277 135.425C48.3698 135.498 47.1766 135.594 45.7355 135.71C42.744 135.933 38.6096 136.212 34.0419 136.495C29.4725 136.778 25.3349 137.011 22.3387 137.159C20.8943 137.222 19.6986 137.274 18.7893 137.313C18.3551 137.349 17.9186 137.349 17.4844 137.314C17.9109 137.224 18.344 137.171 18.7794 137.153C19.6866 137.08 20.8796 136.984 22.3207 136.868C25.3122 136.646 29.447 136.366 34.0164 136.083C38.5842 135.801 42.7214 135.568 45.7176 135.419C47.1619 135.357 48.3578 135.305 49.2671 135.265C49.7014 135.229 50.138 135.229 50.5723 135.265Z" fill="#E0E0E0"/>
<path d="M40.7515 14.2378L40.4199 67.1523H91.8548L92.6981 14.2378L88.6768 14.5065L89.056 16.1322C88.9899 17.1711 88.2735 17.5601 87.2329 17.5897C87.2103 17.5903 87.1876 17.5906 87.1649 17.5906C86.116 17.5911 85.1737 17.2413 85.0696 16.1975L85.4112 14.2378H81.7922C81.7922 14.2378 82.1989 17.8001 79.9685 17.7117C79.9685 17.7117 77.9395 17.3303 78.5174 14.2378H75.4995C75.4995 14.2378 76.0572 17.8126 73.7457 17.7484C71.7826 17.6938 71.8669 15.6596 71.9679 14.2378H68.7838C68.7838 14.2378 69.1056 17.7705 66.7667 17.4586C64.4277 17.1468 65.1973 14.2378 65.1973 14.2378H61.1432C61.1432 14.2378 62.1846 17.5871 59.7676 17.5871C57.3507 17.5871 57.8153 15.0383 58.0981 14.2378H55.0159C55.0159 14.2378 56.0433 17.6513 52.9612 17.4586C50.6476 17.3141 51.9433 14.2378 51.9433 14.2378H47.6552C47.6552 14.2378 48.659 17.5871 46.3474 17.5871C44.7027 17.5871 44.1467 15.5415 45.0823 14.2378H40.7515Z" fill="#FFC67D"/>
<path d="M52.2019 6.67444L31.7559 21.2939L35.7577 26.8906L56.2037 12.2712L52.2019 6.67444Z" fill="white"/>
<path d="M98.0456 55.1132L77.5996 69.7326L81.6014 75.3293L102.047 60.7099L98.0456 55.1132Z" fill="white"/>
<path d="M87.2416 28.2137C87.1102 28.2457 86.9751 28.2596 86.8399 28.2552C86.5292 28.2657 86.1489 28.2784 85.6879 28.2939C84.6249 28.3104 83.1927 28.3326 81.4511 28.3595C77.8737 28.3967 72.9316 28.4198 67.4733 28.4198C62.0131 28.4198 57.0706 28.3967 53.4931 28.3595C51.7515 28.3325 50.3195 28.3104 49.2566 28.2939C48.7957 28.2784 48.4154 28.2657 48.1047 28.2552C47.9696 28.2596 47.8345 28.2457 47.7031 28.2137C47.8345 28.1818 47.9696 28.1679 48.1047 28.1722C48.4154 28.1618 48.7956 28.149 49.2566 28.1335C50.3195 28.1171 51.7515 28.095 53.4931 28.068C57.0706 28.0307 62.0131 28.0077 67.4733 28.0077C72.9316 28.0077 77.8737 28.0307 81.4511 28.068C83.1928 28.095 84.6249 28.1171 85.6879 28.1335C86.1489 28.149 86.5292 28.1618 86.8399 28.1722C86.9751 28.1679 87.1102 28.1818 87.2416 28.2137Z" fill="#263238"/>
<path d="M86.3297 37.7336C86.2046 37.7655 86.0755 37.7795 85.9464 37.7752C85.6471 37.7857 85.2844 37.7984 84.847 37.8139C83.8275 37.8304 82.4618 37.8525 80.8039 37.8793C77.3898 37.9167 72.6736 37.9397 67.4646 37.9397C62.2539 37.9397 57.5372 37.9167 54.1231 37.8793C52.4651 37.8525 51.0997 37.8304 50.0801 37.8139C49.6429 37.7984 49.2802 37.7857 48.9809 37.7752C48.8518 37.7795 48.7228 37.7655 48.5977 37.7336C48.7228 37.7017 48.8518 37.6877 48.9809 37.6921C49.2802 37.6815 49.6428 37.6688 50.0801 37.6535C51.0996 37.6369 52.4651 37.6148 54.1231 37.5879C57.5372 37.5506 62.2539 37.5276 67.4646 37.5276C72.6736 37.5276 77.3898 37.5506 80.8039 37.5879C82.4618 37.6148 83.8275 37.6369 84.847 37.6535C85.2845 37.6688 85.6472 37.6815 85.9464 37.6921C86.0755 37.6877 86.2046 37.7017 86.3297 37.7336Z" fill="#263238"/>
<path d="M68.366 46.9233C67.4495 47.0413 66.5254 47.09 65.6016 47.069C63.8937 47.1064 61.5343 47.1294 58.9286 47.1294C56.3219 47.1294 53.9622 47.1064 52.2543 47.069C51.3306 47.09 50.4066 47.0413 49.4902 46.9233C50.4066 46.8053 51.3306 46.7566 52.2543 46.7776C53.9622 46.7403 56.3219 46.7173 58.9286 46.7173C61.5343 46.7173 63.8937 46.7403 65.6016 46.7776C66.5254 46.7566 67.4495 46.8054 68.366 46.9233Z" fill="#263238"/>
<path d="M340.441 326.459C340.441 326.573 267.08 326.665 176.606 326.665C86.1007 326.665 12.7559 326.573 12.7559 326.459C12.7559 326.345 86.1007 326.253 176.606 326.253C267.08 326.253 340.441 326.345 340.441 326.459Z" fill="#263238"/>
<path d="M272.509 295.767C271.107 297.769 268.382 297.106 267.119 295.884C265.856 294.662 265.322 292.891 264.836 291.202C263.726 287.343 262.606 283.295 263.432 279.365C263.631 278.174 264.154 277.061 264.944 276.147C265.344 275.697 265.855 275.36 266.426 275.17C266.998 274.98 267.609 274.943 268.199 275.064C269.573 275.427 270.427 276.772 271.044 278.052C272.861 281.831 273.814 285.967 273.832 290.161C273.963 292.12 273.502 294.073 272.509 295.767Z" fill="#E8505B"/>
<path opacity="0.2" d="M272.509 295.767C271.107 297.769 268.382 297.106 267.119 295.884C265.856 294.662 265.322 292.891 264.836 291.202C263.726 287.343 262.606 283.295 263.432 279.365C263.631 278.174 264.154 277.061 264.944 276.147C265.344 275.697 265.855 275.36 266.426 275.17C266.998 274.98 267.609 274.943 268.199 275.064C269.573 275.427 270.427 276.772 271.044 278.052C272.861 281.831 273.814 285.967 273.832 290.161C273.963 292.12 273.502 294.073 272.509 295.767Z" fill="black"/>
<path d="M267.257 305.905C264.907 304.803 262.266 304.482 259.72 304.99C258.329 305.113 257.018 305.698 255.997 306.652C255.067 307.679 254.891 309.486 255.959 310.368C256.648 310.835 257.478 311.045 258.306 310.964C260.299 310.941 262.509 310.59 264.101 311.789C265.009 312.473 265.613 313.61 266.699 313.946C267.242 314.072 267.812 314.017 268.321 313.79C268.831 313.564 269.253 313.177 269.523 312.689C270.041 311.691 270.155 310.532 269.843 309.452C269.714 308.702 269.413 307.991 268.965 307.376C268.516 306.761 267.932 306.258 267.257 305.905Z" fill="#E8505B"/>
<path d="M276.358 298.64C275.638 297.699 275.159 296.596 274.961 295.428C274.764 294.26 274.854 293.061 275.225 291.936C275.993 289.688 277.367 287.695 279.195 286.177C281.27 284.329 283.685 282.905 286.305 281.981C287.319 281.572 288.41 281.387 289.503 281.438C290.048 281.47 290.578 281.634 291.046 281.917C291.513 282.2 291.905 282.593 292.186 283.062C292.934 284.489 292.217 286.22 291.441 287.632C290.073 290.121 288.512 292.499 286.771 294.743C285.371 296.548 283.768 298.328 281.635 299.143C279.502 299.959 277.286 299.863 276.155 298.384" fill="#E8505B"/>
<path d="M272.603 325.967C272.529 325.669 272.486 325.364 272.476 325.057C272.412 324.395 272.331 323.564 272.235 322.575C272.111 321.352 271.924 320.137 271.676 318.933C271.35 317.467 270.908 316.03 270.353 314.635C269.808 313.242 269.069 311.932 268.158 310.746C267.416 309.781 266.468 308.993 265.383 308.439C264.648 308.075 263.859 307.829 263.046 307.712C262.741 307.7 262.437 307.656 262.141 307.581C262.446 307.543 262.755 307.538 263.062 307.566C263.906 307.631 264.731 307.845 265.499 308.201C266.641 308.74 267.643 309.536 268.426 310.527C269.376 311.73 270.143 313.067 270.701 314.495C271.265 315.91 271.704 317.371 272.015 318.863C272.25 320.081 272.412 321.313 272.499 322.55C272.578 323.605 272.608 324.458 272.622 325.048C272.649 325.354 272.642 325.662 272.603 325.967Z" fill="#263238"/>
<path d="M272.433 324.057C272.408 323.917 272.4 323.776 272.408 323.634C272.409 323.317 272.41 322.918 272.412 322.427C272.414 321.38 272.414 319.864 272.358 317.992C272.265 314.248 271.943 309.08 271.32 303.399C270.693 297.717 269.862 292.605 269.104 288.938C268.925 288.019 268.744 287.191 268.575 286.467C268.413 285.741 268.274 285.115 268.141 284.609C268.026 284.132 267.933 283.744 267.859 283.436C267.818 283.3 267.793 283.16 267.785 283.019C267.85 283.145 267.899 283.278 267.932 283.415C268.024 283.719 268.14 284.101 268.282 284.572C268.438 285.073 268.597 285.695 268.779 286.418C268.968 287.139 269.167 287.965 269.364 288.883C270.398 293.663 271.176 298.495 271.693 303.358C272.317 309.05 272.598 314.234 272.623 317.987C272.645 319.864 272.606 321.383 272.558 322.431C272.528 322.921 272.503 323.321 272.484 323.638C272.484 323.779 272.466 323.919 272.433 324.057Z" fill="#263238"/>
<path d="M272.407 314.06C272.377 313.64 272.38 313.218 272.416 312.799C272.463 311.988 272.574 310.817 272.802 309.383C273.078 307.704 273.449 306.042 273.913 304.405C274.467 302.395 275.162 300.427 275.995 298.515C277.439 294.999 279.51 291.774 282.107 288.998C282.558 288.522 283.038 288.076 283.545 287.661C283.766 287.475 283.961 287.289 284.159 287.141L284.717 286.757C285.053 286.503 285.408 286.275 285.779 286.077C284.556 287.039 283.394 288.076 282.299 289.181C279.788 291.98 277.772 295.188 276.339 298.665C275.514 300.562 274.815 302.511 274.246 304.5C273.77 306.122 273.375 307.767 273.064 309.428C272.804 310.848 272.653 312.008 272.562 312.811C272.543 313.23 272.491 313.648 272.407 314.06Z" fill="#263238"/>
<path d="M273.725 256.287L102.508 234.513L132.331 0L307.798 22.3143C308.719 22.4314 309.556 22.9099 310.125 23.6444C310.694 24.3788 310.947 25.3091 310.83 26.2306L282.431 249.545C282.17 251.594 281.107 253.455 279.474 254.719C277.841 255.984 275.773 256.548 273.725 256.287Z" fill="#455A64"/>
<path d="M296.472 61.6159L295.021 73.0225L316.246 75.7217L317.697 64.3151L296.472 61.6159Z" fill="#E8505B"/>
<path d="M296.472 61.6159L295.021 73.0225L316.246 75.7217L317.697 64.3151L296.472 61.6159Z" fill="#AE6B16"/>
<path d="M304.485 28.3264L138.91 7.27008L110.55 230.274L276.125 251.33L304.485 28.3264Z" fill="#E0E0E0"/>
<path d="M297.448 24.6674L131.873 3.61105L103.513 226.615L269.088 247.671L297.448 24.6674Z" fill="#FAFAFA"/>
<path d="M134.387 25.6818L299.381 46.6643" stroke="#E0E0E0" stroke-miterlimit="10"/>
<path d="M134.02 36.9032L299.014 57.8856" stroke="#E0E0E0" stroke-miterlimit="10"/>
<path d="M132.609 47.9919L297.604 68.9744" stroke="#E0E0E0" stroke-miterlimit="10"/>
<path d="M131.199 59.0807L296.194 80.0632" stroke="#E0E0E0" stroke-miterlimit="10"/>
<path d="M129.789 70.1694L294.783 91.1519" stroke="#E0E0E0" stroke-miterlimit="10"/>
<path d="M128.379 81.2582L293.373 102.241" stroke="#E0E0E0" stroke-miterlimit="10"/>
<path d="M126.969 92.3469L291.963 113.329" stroke="#E0E0E0" stroke-miterlimit="10"/>
<path d="M125.559 103.436L290.553 124.418" stroke="#E0E0E0" stroke-miterlimit="10"/>
<path d="M124.148 114.524L289.143 135.507" stroke="#E0E0E0" stroke-miterlimit="10"/>
<path d="M122.738 125.613L287.733 146.596" stroke="#E0E0E0" stroke-miterlimit="10"/>
<path d="M121.328 136.702L286.322 157.684" stroke="#E0E0E0" stroke-miterlimit="10"/>
<path d="M119.918 147.791L284.912 168.773" stroke="#E0E0E0" stroke-miterlimit="10"/>
<path d="M118.508 158.879L283.502 179.862" stroke="#E0E0E0" stroke-miterlimit="10"/>
<path d="M115.688 181.057L280.682 202.039" stroke="#E0E0E0" stroke-miterlimit="10"/>
<path d="M114.277 192.146L279.272 213.128" stroke="#E0E0E0" stroke-miterlimit="10"/>
<path d="M112.867 203.234L277.861 224.217" stroke="#E0E0E0" stroke-miterlimit="10"/>
<path d="M111.457 214.323L276.451 235.306" stroke="#E0E0E0" stroke-miterlimit="10"/>
<path d="M158.137 8.1391L129.875 230.374" stroke="#E8505B" stroke-miterlimit="10"/>
<path d="M146.289 17.3684C146.205 18.0343 145.924 18.66 145.484 19.1666C145.044 19.6732 144.463 20.0378 143.816 20.2144C143.168 20.391 142.483 20.3715 141.846 20.1586C141.21 19.9457 140.651 19.5488 140.24 19.0181C139.829 18.4874 139.584 17.8468 139.538 17.1772C139.491 16.5077 139.643 15.8393 139.976 15.2565C140.31 14.6738 140.808 14.2029 141.409 13.9034C142.009 13.6039 142.685 13.4892 143.351 13.5739C143.793 13.6301 144.22 13.7728 144.607 13.9939C144.994 14.2151 145.333 14.5102 145.606 14.8626C145.879 15.2149 146.08 15.6176 146.197 16.0475C146.314 16.4775 146.346 16.9263 146.289 17.3684Z" fill="#455A64"/>
<path d="M143.143 42.112C143.058 42.7778 142.778 43.4036 142.338 43.9102C141.897 44.4167 141.317 44.7813 140.669 44.9579C140.022 45.1345 139.336 45.1151 138.7 44.9021C138.063 44.6892 137.504 44.2922 137.093 43.7616C136.682 43.2309 136.438 42.5903 136.391 41.9207C136.344 41.2512 136.497 40.5828 136.83 40C137.163 39.4173 137.661 38.9464 138.262 38.6469C138.863 38.3474 139.539 38.2327 140.205 38.3174C140.647 38.3736 141.073 38.5163 141.46 38.7375C141.847 38.9586 142.187 39.2538 142.46 39.6061C142.732 39.9585 142.933 40.3612 143.05 40.7911C143.168 41.2211 143.199 41.6699 143.143 42.112Z" fill="#455A64"/>
<path d="M139.994 66.8556C139.91 67.5214 139.63 68.1472 139.189 68.6537C138.749 69.1603 138.168 69.5249 137.521 69.7015C136.873 69.8781 136.188 69.8587 135.551 69.6457C134.915 69.4328 134.356 69.0359 133.945 68.5052C133.534 67.9745 133.29 67.3339 133.243 66.6643C133.196 65.9948 133.349 65.3264 133.682 64.7436C134.015 64.1609 134.513 63.69 135.114 63.3905C135.714 63.091 136.39 62.9763 137.056 63.061C137.949 63.1745 138.76 63.6381 139.311 64.3497C139.862 65.0613 140.108 65.9627 139.994 66.8556Z" fill="#455A64"/>
<path d="M136.848 91.5991C136.763 92.2649 136.483 92.8907 136.043 93.3972C135.602 93.9038 135.022 94.2684 134.374 94.445C133.727 94.6216 133.041 94.6022 132.405 94.3892C131.768 94.1763 131.209 93.7794 130.798 93.2487C130.387 92.718 130.143 92.0774 130.096 91.4079C130.049 90.7383 130.202 90.0699 130.535 89.4872C130.868 88.9044 131.366 88.4335 131.967 88.134C132.568 87.8345 133.244 87.7198 133.91 87.8045C134.352 87.8607 134.778 88.0034 135.165 88.2246C135.552 88.4457 135.892 88.7409 136.165 89.0932C136.438 89.4456 136.638 89.8482 136.756 90.2782C136.873 90.7081 136.904 91.157 136.848 91.5991Z" fill="#455A64"/>
<path d="M133.702 116.343C133.617 117.009 133.337 117.634 132.896 118.141C132.456 118.647 131.875 119.012 131.228 119.189C130.58 119.365 129.895 119.346 129.258 119.133C128.622 118.92 128.063 118.523 127.652 117.992C127.241 117.462 126.997 116.821 126.95 116.151C126.903 115.482 127.056 114.814 127.389 114.231C127.722 113.648 128.22 113.177 128.821 112.878C129.421 112.578 130.097 112.463 130.763 112.548C131.656 112.662 132.467 113.125 133.018 113.837C133.569 114.548 133.815 115.45 133.702 116.343Z" fill="#455A64"/>
<path d="M130.555 141.086C130.47 141.752 130.19 142.378 129.75 142.884C129.309 143.391 128.729 143.756 128.081 143.932C127.434 144.109 126.748 144.089 126.112 143.876C125.475 143.663 124.916 143.267 124.505 142.736C124.094 142.205 123.85 141.565 123.803 140.895C123.756 140.225 123.909 139.557 124.242 138.974C124.575 138.392 125.074 137.921 125.674 137.621C126.275 137.322 126.951 137.207 127.617 137.292C128.059 137.348 128.485 137.491 128.872 137.712C129.259 137.933 129.599 138.228 129.872 138.58C130.145 138.933 130.345 139.335 130.463 139.765C130.58 140.195 130.611 140.644 130.555 141.086Z" fill="#455A64"/>
<path d="M127.408 165.83C127.324 166.496 127.044 167.121 126.603 167.628C126.163 168.135 125.582 168.499 124.935 168.676C124.287 168.852 123.602 168.833 122.965 168.62C122.329 168.407 121.77 168.01 121.359 167.479C120.948 166.949 120.704 166.308 120.657 165.638C120.61 164.969 120.763 164.301 121.096 163.718C121.429 163.135 121.927 162.664 122.528 162.365C123.128 162.065 123.804 161.95 124.47 162.035C124.912 162.091 125.339 162.234 125.726 162.455C126.113 162.676 126.452 162.972 126.725 163.324C126.998 163.676 127.199 164.079 127.316 164.509C127.433 164.939 127.465 165.388 127.408 165.83Z" fill="#455A64"/>
<path d="M124.262 190.573C124.177 191.239 123.897 191.865 123.457 192.371C123.016 192.878 122.436 193.243 121.788 193.419C121.141 193.596 120.455 193.576 119.819 193.363C119.182 193.151 118.623 192.754 118.212 192.223C117.801 191.692 117.557 191.052 117.51 190.382C117.463 189.713 117.616 189.044 117.949 188.461C118.282 187.879 118.781 187.408 119.381 187.108C119.982 186.809 120.658 186.694 121.324 186.779C122.216 186.892 123.028 187.356 123.579 188.067C124.13 188.779 124.376 189.68 124.262 190.573Z" fill="#455A64"/>
<path d="M121.116 215.317C121.031 215.983 120.751 216.608 120.31 217.115C119.87 217.622 119.289 217.986 118.642 218.163C117.994 218.339 117.309 218.32 116.672 218.107C116.036 217.894 115.477 217.497 115.066 216.967C114.655 216.436 114.411 215.795 114.364 215.126C114.317 214.456 114.47 213.788 114.803 213.205C115.136 212.622 115.634 212.151 116.235 211.852C116.835 211.552 117.511 211.438 118.177 211.522C118.619 211.578 119.046 211.721 119.433 211.942C119.82 212.163 120.159 212.459 120.432 212.811C120.705 213.163 120.906 213.566 121.023 213.996C121.14 214.426 121.172 214.875 121.116 215.317Z" fill="#455A64"/>
<path d="M129.486 27.1914C129.474 27.2323 129.346 27.2301 129.109 27.1868C128.761 27.1256 128.42 27.034 128.089 26.913C126.846 26.4399 125.754 25.641 124.926 24.6C124.359 23.8683 123.921 23.0457 123.629 22.1673C123.296 21.163 123.123 20.1128 123.115 19.0548C123.068 17.8514 123.311 16.6544 123.824 15.5645C124.428 14.4205 125.309 13.4458 126.386 12.7292C127.445 12.0146 128.645 11.5354 129.905 11.3238C131.061 11.1349 132.239 11.136 133.395 11.3269C135.312 11.6612 137.14 12.3863 138.765 13.4572C139.844 14.1524 140.851 14.9528 141.771 15.8467C142.416 16.4793 142.726 16.8746 142.671 16.9367C142.613 17.0023 142.194 16.7282 141.465 16.2176C140.454 15.4909 139.403 14.8203 138.318 14.2089C136.745 13.3141 135.02 12.7192 133.23 12.4542C132.195 12.3136 131.145 12.3346 130.116 12.5165C129.03 12.7144 127.996 13.1353 127.08 13.7527C126.171 14.3557 125.422 15.1702 124.897 16.1263C124.46 17.0427 124.24 18.0471 124.254 19.0619C124.234 20.0069 124.352 20.9498 124.607 21.8601C124.829 22.6504 125.175 23.4007 125.631 24.0829C126.016 24.6446 126.479 25.1496 127.004 25.583C127.407 25.9174 127.838 26.2165 128.293 26.4768C128.666 26.7016 128.987 26.8234 129.188 26.9506C129.393 27.0682 129.498 27.1505 129.486 27.1914Z" fill="#E8505B"/>
<path d="M126.339 51.9349C126.327 51.9759 126.199 51.9736 125.962 51.9303C125.615 51.8692 125.274 51.7776 124.942 51.6565C123.7 51.1835 122.607 50.3846 121.78 49.3436C121.213 48.6119 120.774 47.7893 120.482 46.9109C120.149 45.9066 119.976 44.8563 119.969 43.7984C119.922 42.595 120.165 41.398 120.677 40.3081C121.281 39.1641 122.162 38.1894 123.24 37.4727C124.299 36.7582 125.498 36.2789 126.758 36.0673C127.914 35.8785 129.093 35.8796 130.248 36.0705C132.165 36.4047 133.993 37.1298 135.618 38.2008C136.697 38.896 137.704 39.6964 138.625 40.5904C139.27 41.2229 139.579 41.6181 139.524 41.6802C139.466 41.7458 139.048 41.4718 138.318 40.9611C137.307 40.2344 136.257 39.5639 135.172 38.9525C133.599 38.0577 131.873 37.4627 130.083 37.1977C129.048 37.0571 127.998 37.0781 126.97 37.26C125.883 37.4579 124.849 37.8789 123.933 38.4963C123.024 39.0993 122.275 39.9138 121.75 40.87C121.314 41.7863 121.094 42.7907 121.108 43.8055C121.087 44.7505 121.206 45.6933 121.46 46.6036C121.682 47.394 122.028 48.1442 122.485 48.8265C122.87 49.3882 123.332 49.8931 123.857 50.3266C124.261 50.661 124.692 50.9601 125.146 51.2205C125.52 51.4452 125.841 51.567 126.042 51.6942C126.247 51.8118 126.351 51.894 126.339 51.9349Z" fill="#E8505B"/>
<path d="M123.191 76.6785C123.179 76.7194 123.051 76.7172 122.814 76.6739C122.467 76.6128 122.125 76.5211 121.794 76.4C120.551 75.927 119.459 75.1281 118.631 74.0871C118.064 73.3554 117.626 72.5328 117.334 71.6544C117.001 70.6501 116.828 69.5999 116.82 68.5419C116.773 67.3385 117.016 66.1415 117.529 65.0517C118.133 63.9077 119.014 62.933 120.091 62.2162C121.15 61.5017 122.35 61.0225 123.61 60.8109C124.766 60.622 125.944 60.6231 127.1 60.8141C129.017 61.1482 130.845 61.8734 132.47 62.9443C133.549 63.6395 134.556 64.4399 135.477 65.3339C136.121 65.9664 136.431 66.3617 136.376 66.4237C136.318 66.4893 135.899 66.2153 135.17 65.7047C134.159 64.978 133.108 64.3074 132.024 63.696C130.451 62.8013 128.725 62.2063 126.935 61.9412C125.9 61.8007 124.85 61.8217 123.821 62.0036C122.735 62.2015 121.701 62.6224 120.785 63.2398C119.876 63.8428 119.127 64.6573 118.602 65.6135C118.165 66.5298 117.946 67.5342 117.959 68.549C117.939 69.494 118.058 70.4369 118.312 71.3472C118.534 72.1375 118.88 72.8878 119.336 73.57C119.722 74.1317 120.184 74.6367 120.709 75.0701C121.112 75.4045 121.543 75.7036 121.998 75.964C122.371 76.1887 122.692 76.3105 122.893 76.4378C123.099 76.5553 123.203 76.6376 123.191 76.6785Z" fill="#E8505B"/>
<path d="M120.044 101.422C120.032 101.463 119.904 101.461 119.667 101.417C119.32 101.356 118.979 101.265 118.648 101.144C117.405 100.671 116.312 99.8716 115.485 98.8307C114.918 98.099 114.479 97.2764 114.187 96.3979C113.855 95.3937 113.681 94.3434 113.674 93.2855C113.627 92.0821 113.87 90.8851 114.382 89.7952C114.987 88.6512 115.867 87.6765 116.945 86.9599C118.004 86.2453 119.204 85.766 120.464 85.5544C121.619 85.3656 122.798 85.3667 123.953 85.5576C125.871 85.8918 127.699 86.6169 129.324 87.6879C130.402 88.3831 131.409 89.1835 132.33 90.0774C132.975 90.71 133.285 91.1053 133.229 91.1673C133.171 91.2329 132.753 90.9589 132.023 90.4482C131.012 89.7215 129.962 89.051 128.877 88.4396C127.304 87.5448 125.578 86.9498 123.788 86.6848C122.754 86.5442 121.703 86.5652 120.675 86.7471C119.588 86.945 118.554 87.366 117.638 87.9834C116.729 88.5863 115.98 89.4008 115.455 90.357C115.019 91.2733 114.799 92.2777 114.813 93.2926C114.792 94.2376 114.911 95.1804 115.166 96.0907C115.387 96.8811 115.733 97.6313 116.19 98.3136C116.575 98.8753 117.037 99.3802 117.563 99.8137C117.966 100.148 118.397 100.447 118.851 100.708C119.225 100.932 119.546 101.054 119.747 101.181C119.952 101.299 120.056 101.381 120.044 101.422Z" fill="#E8505B"/>
<path d="M116.898 126.166C116.886 126.207 116.758 126.204 116.521 126.161C116.174 126.1 115.832 126.008 115.501 125.887C114.258 125.414 113.166 124.615 112.338 123.574C111.771 122.843 111.333 122.02 111.041 121.142C110.708 120.137 110.535 119.087 110.527 118.029C110.48 116.826 110.723 115.629 111.236 114.539C111.84 113.395 112.721 112.42 113.798 111.703C114.857 110.989 116.057 110.51 117.317 110.298C118.473 110.109 119.651 110.11 120.807 110.301C122.724 110.635 124.552 111.36 126.177 112.431C127.256 113.127 128.263 113.927 129.184 114.821C129.828 115.454 130.138 115.849 130.083 115.911C130.025 115.976 129.606 115.702 128.877 115.192C127.866 114.465 126.815 113.795 125.731 113.183C124.158 112.288 122.432 111.693 120.642 111.428C119.607 111.288 118.557 111.309 117.529 111.491C116.442 111.689 115.408 112.11 114.492 112.727C113.583 113.33 112.834 114.144 112.309 115.101C111.872 116.017 111.653 117.021 111.666 118.036C111.646 118.981 111.765 119.924 112.019 120.834C112.241 121.625 112.587 122.375 113.043 123.057C113.429 123.619 113.891 124.124 114.416 124.557C114.819 124.892 115.25 125.191 115.705 125.451C116.078 125.676 116.399 125.798 116.6 125.925C116.806 126.042 116.91 126.125 116.898 126.166Z" fill="#E8505B"/>
<path d="M113.751 150.909C113.739 150.95 113.611 150.948 113.374 150.905C113.027 150.843 112.686 150.752 112.355 150.631C111.112 150.158 110.019 149.359 109.192 148.318C108.625 147.586 108.186 146.763 107.894 145.885C107.562 144.881 107.388 143.831 107.381 142.773C107.334 141.569 107.577 140.372 108.089 139.282C108.694 138.138 109.575 137.164 110.652 136.447C111.711 135.732 112.911 135.253 114.171 135.042C115.326 134.853 116.505 134.854 117.66 135.045C119.578 135.379 121.406 136.104 123.031 137.175C124.109 137.87 125.116 138.671 126.037 139.564C126.682 140.197 126.992 140.592 126.937 140.654C126.878 140.72 126.46 140.446 125.73 139.935C124.719 139.209 123.669 138.538 122.584 137.927C121.011 137.032 119.286 136.437 117.495 136.172C116.461 136.031 115.41 136.052 114.382 136.234C113.295 136.432 112.261 136.853 111.345 137.47C110.436 138.073 109.687 138.888 109.162 139.844C108.726 140.76 108.506 141.765 108.52 142.78C108.499 143.725 108.618 144.668 108.873 145.578C109.095 146.368 109.44 147.118 109.897 147.801C110.282 148.362 110.744 148.867 111.27 149.301C111.673 149.635 112.104 149.934 112.558 150.195C112.932 150.419 113.253 150.541 113.454 150.668C113.659 150.786 113.763 150.868 113.751 150.909Z" fill="#E8505B"/>
<path d="M110.605 175.653C110.593 175.694 110.465 175.691 110.228 175.648C109.881 175.587 109.539 175.495 109.208 175.374C107.965 174.901 106.873 174.102 106.045 173.061C105.478 172.33 105.04 171.507 104.748 170.629C104.415 169.624 104.242 168.574 104.234 167.516C104.187 166.313 104.43 165.116 104.943 164.026C105.547 162.882 106.428 161.907 107.505 161.191C108.564 160.476 109.764 159.997 111.024 159.785C112.18 159.596 113.358 159.597 114.514 159.788C116.431 160.122 118.259 160.848 119.884 161.919C120.963 162.614 121.97 163.414 122.891 164.308C123.535 164.941 123.845 165.336 123.79 165.398C123.732 165.464 123.313 165.19 122.584 164.679C121.573 163.952 120.522 163.282 119.438 162.67C117.865 161.775 116.139 161.18 114.349 160.915C113.314 160.775 112.264 160.796 111.235 160.978C110.149 161.176 109.115 161.597 108.199 162.214C107.29 162.817 106.541 163.632 106.016 164.588C105.579 165.504 105.36 166.508 105.373 167.523C105.353 168.468 105.472 169.411 105.726 170.321C105.948 171.112 106.294 171.862 106.75 172.544C107.136 173.106 107.598 173.611 108.123 174.044C108.526 174.379 108.957 174.678 109.412 174.938C109.785 175.163 110.107 175.285 110.307 175.412C110.513 175.53 110.617 175.612 110.605 175.653Z" fill="#E8505B"/>
<path d="M107.458 200.396C107.446 200.437 107.318 200.435 107.081 200.392C106.734 200.331 106.393 200.239 106.062 200.118C104.819 199.645 103.726 198.846 102.899 197.805C102.332 197.073 101.893 196.251 101.601 195.372C101.269 194.368 101.095 193.318 101.088 192.26C101.041 191.056 101.284 189.859 101.796 188.769C102.401 187.625 103.282 186.651 104.359 185.934C105.418 185.219 106.618 184.74 107.878 184.529C109.033 184.34 110.212 184.341 111.367 184.532C113.285 184.866 115.113 185.591 116.738 186.662C117.816 187.357 118.823 188.158 119.744 189.052C120.389 189.684 120.699 190.079 120.644 190.141C120.585 190.207 120.167 189.933 119.437 189.422C118.426 188.696 117.376 188.025 116.291 187.414C114.718 186.519 112.993 185.924 111.202 185.659C110.168 185.518 109.117 185.539 108.089 185.721C107.002 185.919 105.968 186.34 105.052 186.958C104.143 187.561 103.394 188.375 102.869 189.331C102.433 190.248 102.213 191.252 102.227 192.267C102.206 193.212 102.325 194.155 102.58 195.065C102.802 195.855 103.147 196.606 103.604 197.288C103.989 197.849 104.451 198.354 104.977 198.788C105.38 199.122 105.811 199.421 106.265 199.682C106.639 199.906 106.96 200.028 107.161 200.155C107.366 200.273 107.47 200.355 107.458 200.396Z" fill="#E8505B"/>
<path d="M104.312 225.14C104.3 225.181 104.172 225.179 103.935 225.135C103.588 225.074 103.246 224.982 102.915 224.861C101.672 224.388 100.58 223.589 99.7523 222.548C99.1855 221.817 98.7468 220.994 98.455 220.116C98.1222 219.111 97.9488 218.061 97.9412 217.003C97.8944 215.8 98.1374 214.603 98.6498 213.513C99.2542 212.369 100.135 211.394 101.212 210.678C102.271 209.963 103.471 209.484 104.731 209.272C105.887 209.083 107.066 209.084 108.221 209.275C110.138 209.61 111.966 210.335 113.591 211.406C114.67 212.101 115.677 212.901 116.598 213.795C117.242 214.428 117.552 214.823 117.497 214.885C117.439 214.951 117.021 214.677 116.291 214.166C115.28 213.439 114.229 212.769 113.145 212.157C111.572 211.263 109.846 210.668 108.056 210.403C107.021 210.262 105.971 210.283 104.943 210.465C103.856 210.663 102.822 211.084 101.906 211.701C100.997 212.304 100.248 213.119 99.7229 214.075C99.2865 214.991 99.0667 215.996 99.0804 217.01C99.0598 217.955 99.1786 218.898 99.4331 219.809C99.6551 220.599 100.001 221.349 100.457 222.031C100.843 222.593 101.305 223.098 101.83 223.531C102.233 223.866 102.664 224.165 103.119 224.425C103.492 224.65 103.814 224.772 104.014 224.899C104.22 225.017 104.324 225.099 104.312 225.14Z" fill="#E8505B"/>
<g opacity="0.2">
<path opacity="0.2" d="M129.486 27.1914C129.474 27.2323 129.346 27.2301 129.109 27.1868C128.761 27.1256 128.42 27.034 128.089 26.913C126.846 26.4399 125.754 25.641 124.926 24.6C124.359 23.8683 123.921 23.0457 123.629 22.1673C123.296 21.163 123.123 20.1128 123.115 19.0548C123.068 17.8514 123.311 16.6544 123.824 15.5645C124.428 14.4205 125.309 13.4458 126.386 12.7292C127.445 12.0146 128.645 11.5354 129.905 11.3238C131.061 11.1349 132.239 11.136 133.395 11.3269C135.312 11.6612 137.14 12.3863 138.765 13.4572C139.844 14.1524 140.851 14.9528 141.771 15.8467C142.416 16.4793 142.726 16.8746 142.671 16.9367C142.613 17.0023 142.194 16.7282 141.465 16.2176C140.454 15.4909 139.403 14.8203 138.318 14.2089C136.745 13.3141 135.02 12.7192 133.23 12.4542C132.195 12.3136 131.145 12.3346 130.116 12.5165C129.03 12.7144 127.996 13.1353 127.08 13.7527C126.171 14.3557 125.422 15.1702 124.897 16.1263C124.46 17.0427 124.24 18.0471 124.254 19.0619C124.234 20.0069 124.352 20.9498 124.607 21.8601C124.829 22.6504 125.175 23.4007 125.631 24.0829C126.016 24.6446 126.479 25.1496 127.004 25.583C127.407 25.9174 127.838 26.2165 128.293 26.4768C128.666 26.7016 128.987 26.8234 129.188 26.9506C129.393 27.0682 129.498 27.1505 129.486 27.1914Z" fill="black"/>
<path opacity="0.2" d="M126.339 51.9349C126.327 51.9759 126.199 51.9736 125.962 51.9303C125.615 51.8692 125.274 51.7776 124.942 51.6565C123.7 51.1835 122.607 50.3846 121.78 49.3436C121.213 48.6119 120.774 47.7893 120.482 46.9109C120.149 45.9066 119.976 44.8563 119.969 43.7983C119.922 42.595 120.165 41.398 120.677 40.3081C121.281 39.1641 122.162 38.1894 123.24 37.4727C124.299 36.7582 125.498 36.2789 126.758 36.0673C127.914 35.8785 129.093 35.8796 130.248 36.0705C132.165 36.4047 133.993 37.1298 135.618 38.2008C136.697 38.896 137.704 39.6964 138.625 40.5903C139.27 41.2229 139.579 41.6181 139.524 41.6802C139.466 41.7458 139.048 41.4718 138.318 40.9611C137.307 40.2344 136.257 39.5639 135.172 38.9525C133.599 38.0577 131.873 37.4627 130.083 37.1977C129.048 37.0571 127.998 37.0781 126.97 37.26C125.883 37.4579 124.849 37.8789 123.933 38.4963C123.024 39.0993 122.275 39.9138 121.75 40.8699C121.314 41.7862 121.094 42.7906 121.108 43.8055C121.087 44.7504 121.206 45.6933 121.46 46.6036C121.682 47.394 122.028 48.1442 122.485 48.8265C122.87 49.3882 123.332 49.8931 123.857 50.3266C124.261 50.661 124.692 50.9601 125.146 51.2204C125.52 51.4452 125.841 51.567 126.042 51.6942C126.247 51.8118 126.351 51.894 126.339 51.9349Z" fill="black"/>
<path opacity="0.2" d="M123.191 76.6785C123.179 76.7194 123.051 76.7172 122.814 76.6739C122.467 76.6128 122.125 76.5211 121.794 76.4C120.551 75.927 119.459 75.1281 118.631 74.0871C118.064 73.3554 117.626 72.5328 117.334 71.6544C117.001 70.6501 116.828 69.5999 116.82 68.5419C116.773 67.3385 117.016 66.1415 117.529 65.0517C118.133 63.9077 119.014 62.933 120.091 62.2162C121.15 61.5017 122.35 61.0225 123.61 60.8109C124.766 60.622 125.944 60.6231 127.1 60.814C129.017 61.1482 130.845 61.8734 132.47 62.9443C133.549 63.6395 134.556 64.4399 135.477 65.3339C136.121 65.9664 136.431 66.3617 136.376 66.4237C136.318 66.4893 135.899 66.2153 135.17 65.7047C134.159 64.978 133.108 64.3074 132.024 63.696C130.451 62.8012 128.725 62.2062 126.935 61.9412C125.9 61.8007 124.85 61.8217 123.821 62.0036C122.735 62.2015 121.701 62.6224 120.785 63.2398C119.876 63.8428 119.127 64.6573 118.602 65.6135C118.165 66.5298 117.946 67.5342 117.959 68.549C117.939 69.494 118.058 70.4369 118.312 71.3472C118.534 72.1375 118.88 72.8878 119.336 73.57C119.722 74.1317 120.184 74.6366 120.709 75.0701C121.112 75.4045 121.543 75.7036 121.998 75.964C122.371 76.1887 122.692 76.3105 122.893 76.4378C123.099 76.5553 123.203 76.6376 123.191 76.6785Z" fill="black"/>
<path opacity="0.2" d="M120.044 101.422C120.032 101.463 119.904 101.461 119.667 101.417C119.32 101.356 118.979 101.265 118.648 101.144C117.405 100.671 116.312 99.8716 115.485 98.8307C114.918 98.099 114.479 97.2764 114.187 96.3979C113.855 95.3937 113.681 94.3434 113.674 93.2855C113.627 92.0821 113.87 90.8851 114.382 89.7952C114.987 88.6512 115.867 87.6765 116.945 86.9598C118.004 86.2453 119.204 85.766 120.464 85.5544C121.619 85.3656 122.798 85.3667 123.953 85.5576C125.871 85.8918 127.699 86.6169 129.324 87.6878C130.402 88.3831 131.409 89.1835 132.33 90.0774C132.975 90.71 133.285 91.1052 133.229 91.1673C133.171 91.2329 132.753 90.9589 132.023 90.4482C131.012 89.7215 129.962 89.051 128.877 88.4396C127.304 87.5448 125.578 86.9498 123.788 86.6848C122.754 86.5442 121.703 86.5652 120.675 86.7471C119.588 86.945 118.554 87.366 117.638 87.9834C116.729 88.5863 115.98 89.4008 115.455 90.357C115.019 91.2733 114.799 92.2777 114.813 93.2926C114.792 94.2376 114.911 95.1804 115.166 96.0907C115.387 96.8811 115.733 97.6313 116.19 98.3136C116.575 98.8753 117.037 99.3802 117.563 99.8137C117.966 100.148 118.397 100.447 118.851 100.708C119.225 100.932 119.546 101.054 119.747 101.181C119.952 101.299 120.056 101.381 120.044 101.422Z" fill="black"/>
<path opacity="0.2" d="M116.898 126.166C116.886 126.207 116.758 126.204 116.521 126.161C116.174 126.1 115.832 126.008 115.501 125.887C114.258 125.414 113.166 124.615 112.338 123.574C111.771 122.842 111.333 122.02 111.041 121.142C110.708 120.137 110.535 119.087 110.527 118.029C110.48 116.826 110.723 115.629 111.236 114.539C111.84 113.395 112.721 112.42 113.798 111.703C114.857 110.989 116.057 110.51 117.317 110.298C118.473 110.109 119.651 110.11 120.807 110.301C122.724 110.635 124.552 111.36 126.177 112.431C127.256 113.127 128.263 113.927 129.184 114.821C129.828 115.454 130.138 115.849 130.083 115.911C130.025 115.976 129.606 115.702 128.877 115.192C127.866 114.465 126.815 113.794 125.731 113.183C124.158 112.288 122.432 111.693 120.642 111.428C119.607 111.288 118.557 111.309 117.529 111.491C116.442 111.689 115.408 112.11 114.492 112.727C113.583 113.33 112.834 114.144 112.309 115.101C111.872 116.017 111.653 117.021 111.666 118.036C111.646 118.981 111.765 119.924 112.019 120.834C112.241 121.625 112.587 122.375 113.043 123.057C113.429 123.619 113.891 124.124 114.416 124.557C114.819 124.892 115.25 125.191 115.705 125.451C116.078 125.676 116.399 125.798 116.6 125.925C116.806 126.042 116.91 126.125 116.898 126.166Z" fill="black"/>
<path opacity="0.2" d="M113.751 150.909C113.739 150.95 113.611 150.948 113.374 150.905C113.027 150.843 112.686 150.752 112.355 150.631C111.112 150.158 110.019 149.359 109.192 148.318C108.625 147.586 108.186 146.763 107.894 145.885C107.562 144.881 107.388 143.831 107.381 142.773C107.334 141.569 107.577 140.372 108.089 139.282C108.694 138.138 109.575 137.164 110.652 136.447C111.711 135.732 112.911 135.253 114.171 135.042C115.326 134.853 116.505 134.854 117.66 135.045C119.578 135.379 121.406 136.104 123.031 137.175C124.109 137.87 125.116 138.671 126.037 139.564C126.682 140.197 126.992 140.592 126.937 140.654C126.878 140.72 126.46 140.446 125.73 139.935C124.719 139.209 123.669 138.538 122.584 137.927C121.011 137.032 119.286 136.437 117.495 136.172C116.461 136.031 115.41 136.052 114.382 136.234C113.295 136.432 112.261 136.853 111.345 137.47C110.436 138.073 109.687 138.888 109.162 139.844C108.726 140.76 108.506 141.765 108.52 142.78C108.499 143.725 108.618 144.668 108.873 145.578C109.095 146.368 109.44 147.118 109.897 147.801C110.282 148.362 110.744 148.867 111.27 149.301C111.673 149.635 112.104 149.934 112.558 150.195C112.932 150.419 113.253 150.541 113.454 150.668C113.659 150.786 113.763 150.868 113.751 150.909Z" fill="black"/>
<path opacity="0.2" d="M110.605 175.653C110.593 175.694 110.465 175.691 110.228 175.648C109.881 175.587 109.539 175.495 109.208 175.374C107.965 174.901 106.873 174.102 106.045 173.061C105.478 172.33 105.04 171.507 104.748 170.629C104.415 169.624 104.242 168.574 104.234 167.516C104.187 166.313 104.43 165.116 104.943 164.026C105.547 162.882 106.428 161.907 107.505 161.191C108.564 160.476 109.764 159.997 111.024 159.785C112.18 159.596 113.358 159.597 114.514 159.788C116.431 160.122 118.259 160.848 119.884 161.919C120.963 162.614 121.97 163.414 122.891 164.308C123.535 164.941 123.845 165.336 123.79 165.398C123.732 165.464 123.313 165.19 122.584 164.679C121.573 163.952 120.522 163.282 119.438 162.67C117.865 161.775 116.139 161.18 114.349 160.915C113.314 160.775 112.264 160.796 111.235 160.978C110.149 161.176 109.115 161.597 108.199 162.214C107.29 162.817 106.541 163.632 106.016 164.588C105.579 165.504 105.36 166.508 105.373 167.523C105.353 168.468 105.472 169.411 105.726 170.321C105.948 171.112 106.294 171.862 106.75 172.544C107.136 173.106 107.598 173.611 108.123 174.044C108.526 174.379 108.957 174.678 109.412 174.938C109.785 175.163 110.107 175.285 110.307 175.412C110.513 175.53 110.617 175.612 110.605 175.653Z" fill="black"/>
<path opacity="0.2" d="M107.458 200.396C107.446 200.437 107.318 200.435 107.081 200.392C106.734 200.331 106.393 200.239 106.062 200.118C104.819 199.645 103.726 198.846 102.899 197.805C102.332 197.073 101.893 196.251 101.601 195.372C101.269 194.368 101.095 193.318 101.088 192.26C101.041 191.056 101.284 189.859 101.796 188.769C102.401 187.625 103.282 186.651 104.359 185.934C105.418 185.219 106.618 184.74 107.878 184.529C109.033 184.34 110.212 184.341 111.367 184.532C113.285 184.866 115.113 185.591 116.738 186.662C117.816 187.357 118.823 188.158 119.744 189.052C120.389 189.684 120.699 190.079 120.644 190.141C120.585 190.207 120.167 189.933 119.437 189.423C118.426 188.696 117.376 188.025 116.291 187.414C114.718 186.519 112.993 185.924 111.202 185.659C110.168 185.519 109.117 185.54 108.089 185.721C107.002 185.919 105.968 186.34 105.052 186.958C104.143 187.561 103.394 188.375 102.869 189.331C102.433 190.248 102.213 191.252 102.227 192.267C102.206 193.212 102.325 194.155 102.58 195.065C102.802 195.855 103.147 196.606 103.604 197.288C103.989 197.849 104.451 198.354 104.977 198.788C105.38 199.122 105.811 199.421 106.265 199.682C106.639 199.907 106.96 200.028 107.161 200.155C107.366 200.273 107.47 200.355 107.458 200.396Z" fill="black"/>
<path opacity="0.2" d="M104.312 225.14C104.3 225.181 104.172 225.179 103.935 225.135C103.588 225.074 103.246 224.982 102.915 224.861C101.672 224.388 100.58 223.589 99.7523 222.548C99.1855 221.817 98.7468 220.994 98.455 220.116C98.1222 219.111 97.9488 218.061 97.9412 217.003C97.8944 215.8 98.1374 214.603 98.6498 213.513C99.2542 212.369 100.135 211.394 101.212 210.678C102.271 209.963 103.471 209.484 104.731 209.272C105.887 209.083 107.066 209.084 108.221 209.275C110.138 209.61 111.966 210.335 113.591 211.406C114.67 212.101 115.677 212.901 116.598 213.795C117.242 214.428 117.552 214.823 117.497 214.885C117.439 214.951 117.021 214.677 116.291 214.166C115.28 213.439 114.229 212.769 113.145 212.157C111.572 211.263 109.846 210.668 108.056 210.403C107.021 210.262 105.971 210.283 104.943 210.465C103.856 210.663 102.822 211.084 101.906 211.701C100.997 212.304 100.248 213.119 99.7229 214.075C99.2865 214.991 99.0667 215.996 99.0804 217.01C99.0598 217.955 99.1786 218.898 99.4331 219.809C99.6551 220.599 100.001 221.349 100.457 222.031C100.843 222.593 101.305 223.098 101.83 223.531C102.233 223.866 102.664 224.165 103.119 224.425C103.492 224.65 103.814 224.772 104.014 224.899C104.22 225.017 104.324 225.099 104.312 225.14Z" fill="black"/>
</g>
<path d="M297.574 52.9412L296.123 64.3478L315.223 66.7767L316.674 55.3701L297.574 52.9412Z" fill="#FFC67D"/>
<path d="M282.578 61.538C282.472 61.5404 282.366 61.5335 282.261 61.5173C282.034 61.4922 281.727 61.4584 281.337 61.4153C280.503 61.314 279.312 61.1691 277.788 60.9838C274.685 60.5882 270.235 60.0206 264.744 59.3204C253.716 57.8739 238.518 55.8803 221.731 53.6782C217.531 53.1199 213.431 52.5749 209.471 52.0485C205.512 51.5311 201.692 50.9869 198.055 50.547C194.625 50.0627 191.147 50.0259 187.707 50.4376C184.498 50.8873 181.467 51.574 178.653 51.2378C177.321 51.0861 176.029 50.686 174.845 50.0581C173.726 49.4727 172.753 48.799 171.82 48.2186C170.97 47.6585 170.067 47.183 169.124 46.7987C168.325 46.5024 167.48 46.3445 166.628 46.332C165.439 46.2671 164.269 46.6454 163.343 47.3938C163.043 47.6762 162.775 47.9922 162.547 48.3356C162.588 48.2378 162.638 48.1439 162.696 48.0549C162.758 47.9393 162.833 47.8312 162.92 47.7325C163.027 47.5857 163.151 47.4514 163.288 47.332C164.215 46.537 165.408 46.1224 166.628 46.1716C167.502 46.1707 168.369 46.3204 169.192 46.6142C170.152 46.9916 171.073 47.4634 171.941 48.0226C172.885 48.597 173.862 49.2593 174.965 49.8251C176.124 50.4282 177.386 50.8091 178.685 50.9483C181.434 51.26 184.43 50.5687 187.661 50.099C191.128 49.6678 194.637 49.6916 198.098 50.1696C201.75 50.6009 205.561 51.1359 209.524 51.6483C213.485 52.172 217.585 52.7142 221.785 53.2696C238.566 55.5183 253.759 57.5543 264.782 59.0315C270.266 59.7863 274.711 60.3982 277.809 60.8247C279.328 61.043 280.516 61.2136 281.348 61.333C281.736 61.3932 282.04 61.4404 282.267 61.4755C282.372 61.4872 282.477 61.5081 282.578 61.538Z" fill="#263238"/>
<path d="M279.233 73.0512C279.134 73.0551 279.035 73.0496 278.937 73.0348C278.722 73.0125 278.436 72.983 278.072 72.9454C277.29 72.8551 276.176 72.7266 274.753 72.5623C271.849 72.2087 267.687 71.702 262.554 71.077C252.239 69.7809 238.027 67.9949 222.329 66.0224C206.631 64.0023 192.423 62.174 182.112 60.847C176.986 60.1674 172.83 59.6163 169.93 59.2319C168.512 59.0347 167.401 58.8804 166.621 58.772C166.26 58.7175 165.976 58.6745 165.762 58.6421C165.663 58.6319 165.566 58.6124 165.471 58.5839C165.57 58.58 165.669 58.5856 165.767 58.6003L166.631 58.6896C167.414 58.78 168.528 58.9085 169.95 59.0727C172.854 59.4263 177.016 59.933 182.148 60.5579C192.464 61.8542 206.677 63.6402 222.381 65.6135C238.073 67.6329 252.28 69.4611 262.591 70.7879C267.717 71.4676 271.873 72.0186 274.773 72.4032C276.192 72.6003 277.302 72.7546 278.083 72.863C278.444 72.9176 278.728 72.9606 278.942 72.993C279.041 73.0033 279.138 73.0228 279.233 73.0512Z" fill="#263238"/>
<path d="M265.718 139.495C265.624 139.5 265.529 139.495 265.436 139.481C265.23 139.46 264.958 139.432 264.614 139.397C263.868 139.311 262.809 139.189 261.459 139.034L249.863 137.626L211.627 132.824C196.708 130.903 183.204 129.164 173.401 127.902C168.53 127.255 164.581 126.73 161.822 126.364C160.476 126.176 159.421 126.028 158.677 125.925C158.335 125.872 158.065 125.831 157.86 125.8C157.767 125.79 157.674 125.772 157.584 125.744C157.678 125.739 157.773 125.744 157.866 125.758C158.072 125.779 158.344 125.807 158.688 125.842C159.434 125.928 160.492 126.049 161.843 126.204C164.605 126.54 168.56 127.02 173.437 127.613C183.244 128.845 196.754 130.541 211.679 132.415C226.594 134.336 240.097 136.074 249.9 137.337C254.77 137.984 258.72 138.509 261.479 138.875C262.825 139.063 263.88 139.21 264.625 139.314C264.966 139.366 265.236 139.408 265.441 139.439C265.535 139.448 265.628 139.467 265.718 139.495Z" fill="#263238"/>
<path d="M262.858 161.976C262.764 161.98 262.67 161.976 262.576 161.961C262.37 161.94 262.099 161.913 261.755 161.878C261.008 161.792 259.95 161.67 258.599 161.515C255.836 161.18 251.881 160.699 247.004 160.107C237.197 158.875 223.688 157.179 208.768 155.305C193.848 153.384 180.344 151.645 170.541 150.383L158.963 148.844C157.616 148.657 156.562 148.509 155.818 148.405C155.476 148.353 155.206 148.312 155.001 148.281C154.907 148.271 154.815 148.252 154.725 148.225C154.819 148.22 154.913 148.225 155.006 148.239C155.213 148.26 155.484 148.288 155.828 148.323C156.574 148.409 157.632 148.53 158.983 148.685C161.746 149.021 165.701 149.501 170.578 150.094L208.82 154.896C223.735 156.817 237.237 158.555 247.041 159.818C251.911 160.465 255.86 160.99 258.619 161.356C259.966 161.544 261.021 161.691 261.765 161.795C262.107 161.847 262.377 161.888 262.582 161.92C262.676 161.929 262.768 161.948 262.858 161.976Z" fill="#263238"/>
<path d="M262.063 150.222C261.97 150.227 261.878 150.222 261.787 150.208C261.584 150.188 261.318 150.161 260.982 150.127C260.25 150.043 259.214 149.924 257.892 149.773C255.185 149.444 251.313 148.974 246.538 148.395C236.934 147.189 223.708 145.529 209.099 143.695C194.49 141.813 181.268 140.11 171.668 138.874C166.9 138.24 163.034 137.725 160.331 137.366C159.014 137.182 157.981 137.037 157.252 136.935C156.918 136.884 156.654 136.844 156.452 136.813C156.36 136.804 156.27 136.785 156.182 136.757C156.274 136.753 156.366 136.757 156.458 136.771C156.66 136.792 156.926 136.819 157.262 136.853C157.994 136.937 159.03 137.055 160.352 137.207C163.058 137.535 166.93 138.005 171.705 138.585C181.309 139.79 194.536 141.451 209.151 143.286C223.754 145.167 236.975 146.869 246.575 148.106C251.343 148.74 255.21 149.254 257.912 149.614C259.23 149.798 260.263 149.942 260.992 150.044C261.326 150.095 261.591 150.136 261.792 150.167C261.884 150.176 261.975 150.195 262.063 150.222Z" fill="#263238"/>
<path d="M202.009 164.422C201.843 164.433 201.676 164.426 201.511 164.401C201.143 164.364 200.672 164.317 200.091 164.259C198.808 164.112 197.041 163.91 194.879 163.662C190.437 163.113 184.388 162.365 177.704 161.539C171.025 160.666 164.98 159.876 160.542 159.296C158.388 158.994 156.626 158.748 155.347 158.569C154.77 158.48 154.303 158.407 153.937 158.351C153.771 158.334 153.608 158.299 153.449 158.247C153.616 158.236 153.783 158.243 153.948 158.268C154.316 158.305 154.786 158.352 155.367 158.41C156.65 158.557 158.417 158.759 160.579 159.007C165.021 159.556 171.071 160.304 177.756 161.13C184.434 162.003 190.478 162.793 194.916 163.373C197.071 163.675 198.832 163.921 200.111 164.1L201.521 164.318C201.687 164.335 201.851 164.37 202.009 164.422Z" fill="#263238"/>
<path d="M180.018 70.4937C180.004 70.6066 175.932 70.1817 170.924 69.5449C165.915 68.9078 161.867 68.3 161.881 68.1871C161.895 68.0742 165.967 68.499 170.976 69.136C175.984 69.7729 180.033 70.3808 180.018 70.4937Z" fill="#263238"/>
<path d="M267.279 127.204C267.188 127.209 267.097 127.205 267.007 127.191C266.806 127.172 266.544 127.146 266.213 127.113C265.517 127.033 264.489 126.926 263.163 126.815C261.838 126.698 260.215 126.573 258.328 126.464C256.441 126.344 254.291 126.245 251.913 126.141C247.159 125.928 241.491 125.781 235.203 125.415C232.059 125.224 228.759 124.984 225.354 124.544C221.953 124.083 218.456 123.522 214.862 122.991C200.507 120.795 187.515 118.807 178.081 117.364C173.397 116.625 169.598 116.025 166.943 115.606C165.649 115.393 164.635 115.226 163.918 115.108C163.59 115.049 163.331 115.003 163.133 114.968C163.042 114.957 162.953 114.936 162.867 114.906C162.958 114.904 163.049 114.91 163.139 114.926C163.339 114.951 163.6 114.984 163.93 115.026C164.65 115.126 165.668 115.267 166.967 115.448C169.627 115.836 173.432 116.391 178.124 117.076C187.563 118.488 200.562 120.434 214.923 122.584C218.514 123.114 222.02 123.679 225.406 124.144C228.795 124.587 232.088 124.835 235.226 125.036C241.504 125.423 247.172 125.6 251.927 125.85C254.305 125.972 256.456 126.092 258.343 126.234C260.23 126.365 261.854 126.514 263.179 126.655C264.504 126.791 265.53 126.924 266.223 127.031C266.553 127.081 266.813 127.12 267.012 127.15C267.103 127.159 267.192 127.177 267.279 127.204Z" fill="#263238"/>
<path d="M65.1403 194.756C65.1403 194.756 161.984 98.9988 172.998 83.8273L166.369 77.729L57.1602 186.338L65.1403 194.756Z" fill="#E0E0E0"/>
<path d="M35.6156 214.958C39.9736 215.041 51.7475 213.36 68.3318 196.252L82.966 183.048L71.7689 172.275C71.7689 172.275 94.0862 151.601 93.0189 150.47C91.9516 149.34 80.094 160.346 70.7202 168.458C62.1933 175.837 33.7432 201.859 33.0837 212.192C33.0608 212.542 33.1088 212.892 33.2249 213.223C33.3411 213.553 33.5229 213.857 33.7594 214.115C33.996 214.374 34.2824 214.582 34.6014 214.726C34.9204 214.871 35.2654 214.95 35.6156 214.958Z" fill="#455A64"/>
<path opacity="0.2" d="M93.0186 150.47C91.9513 149.34 80.0937 160.346 70.72 168.458C69.9813 169.097 69.0848 169.884 68.078 170.781L79.1969 181.435L64.5901 194.67C49.5715 210.226 38.4894 213.069 33.3105 213.407C33.5065 213.858 33.8276 214.244 34.2361 214.519C34.6445 214.794 35.1231 214.946 35.6153 214.958C39.9733 215.041 51.7472 213.36 68.3315 196.252L82.9658 183.048L71.7687 172.275C71.7687 172.275 94.0859 151.601 93.0186 150.47Z" fill="black"/>
<path d="M84.5179 169.587L160.846 92.8718L157.614 89.8985L81.4141 166.313L84.5179 169.587Z" fill="#263238"/>
<path d="M172.928 83.9275C172.928 83.9275 180.167 72.5202 178.145 71.9222C176.123 71.3242 166.369 77.729 166.369 77.729L168.233 79.656L157.191 90.3215L160.845 92.8715L170.928 82.222L172.928 83.9275Z" fill="#455A64"/>
<path d="M98.5346 135.83C99.4897 135.903 100.45 135.783 101.357 135.476C102.265 135.17 103.101 134.683 103.816 134.046C104.531 133.409 105.11 132.634 105.518 131.767C105.927 130.901 106.156 129.961 106.193 129.004C106.342 125.128 106.472 121.211 106.472 121.211C106.472 121.211 112.344 120.661 112.77 114.849C113.196 109.037 113.002 95.6208 113.002 95.6208C109.782 93.9984 106.187 93.265 102.59 93.4963C98.9916 93.7277 95.5207 94.9153 92.5353 96.9366L91.6328 97.5475L91.9619 128.807C91.9806 130.588 92.666 132.297 93.8827 133.597C95.0995 134.897 96.7593 135.693 98.5346 135.83Z" fill="#FFBE9D"/>
<path d="M98.2676 88.0753C94.7318 87.9694 91.5235 90.2793 89.8821 93.1231C88.2407 95.967 87.8841 99.2649 87.732 102.472C87.5456 108.769 87.6946 115.071 88.1784 121.351C88.1537 121.828 88.2966 122.299 88.5823 122.681C89.0152 123.038 89.5543 123.24 90.1148 123.257C100.854 124.741 111.746 124.758 122.489 123.306C123.196 122.026 122.204 120.506 121.058 119.522C119.912 118.538 118.495 117.645 118.081 116.263C117.431 114.09 119.591 111.76 118.748 109.642C118.115 108.05 116.021 107.267 115.286 105.712C114.05 103.1 117.239 99.9432 115.824 97.4071C115.087 96.0851 113.361 95.5001 112.27 94.3973C111.306 93.4226 110.892 92.0993 110.057 91.0314C108.748 89.3586 106.497 88.4576 104.255 88.1984C102.275 87.876 100.259 87.8345 98.2676 88.0753Z" fill="#263238"/>
<path d="M89.9852 94.72C88.484 95.4518 87.8349 97.2442 87.6173 98.8999C87.3998 100.556 87.4579 102.292 86.7696 103.814C86.0345 105.438 84.5027 106.678 84.0985 108.415C83.573 110.673 85.0621 113.335 83.7176 115.224C82.8514 116.442 81.1515 116.746 80.0852 117.792C78.6108 119.239 78.7416 121.609 78.9769 123.661C85.4451 123.603 91.9133 123.546 98.3815 123.488" fill="#263238"/>
<path d="M94.2614 91.6383C94.087 90.6938 93.6849 89.806 93.09 89.052C92.4951 88.2979 91.7254 87.7002 90.8474 87.3107C89.9694 86.9213 89.0097 86.7517 88.0514 86.8168C87.0931 86.8819 86.1652 87.1797 85.3479 87.6843C82.2472 89.5989 81.1517 94.17 77.665 95.2298C76.7573 95.5057 75.6393 95.587 75.1616 96.4067C74.6637 97.261 75.283 98.4154 76.1743 98.8433C77.1069 99.1867 78.1159 99.2679 79.0914 99.078C78.8072 99.0478 78.5198 99.0838 78.2518 99.1831C77.9837 99.2824 77.7423 99.4423 77.5462 99.6503C77.3502 99.8583 77.205 100.109 77.1218 100.382C77.0386 100.656 77.0198 100.945 77.0668 101.227C77.2229 101.79 77.5818 102.275 78.0745 102.59C78.5672 102.904 79.1588 103.025 79.7353 102.929C80.3074 102.806 80.8364 102.533 81.2681 102.138C81.6997 101.743 82.0183 101.24 82.1912 100.681C81.7706 101.901 81.35 103.12 80.9294 104.34C83.3425 104.764 85.3994 102.591 86.6227 100.468C87.8461 98.3449 88.9548 95.8642 91.2145 94.9175C92.2186 94.4968 93.3855 94.421 94.2487 93.7578C95.1118 93.0945 95.2822 91.4323 94.2423 91.1105" fill="#263238"/>
<path d="M95.2682 91.7071C95.2891 91.6695 95.7206 91.8827 96.1185 92.5184C96.3815 92.9344 96.5431 93.4063 96.5902 93.8962C96.6373 94.386 96.5687 94.8801 96.3898 95.3385C96.211 95.797 95.9269 96.207 95.5605 96.5355C95.1941 96.8641 94.7556 97.1019 94.2805 97.2298C93.9047 97.3813 93.4864 97.3888 93.1055 97.2511C93.1064 97.1815 93.554 97.2037 94.1875 96.9537C94.5993 96.807 94.9749 96.5735 95.2886 96.269C95.6023 95.9645 95.8469 95.5961 96.0058 95.1888C96.1647 94.7814 96.2342 94.3447 96.2096 93.9082C96.185 93.4717 96.0668 93.0456 95.8631 92.6588C95.5662 92.0457 95.2218 91.7589 95.2682 91.7071Z" fill="#263238"/>
<path d="M116.312 276.126L126.26 322.005L139.382 321.698L133.568 272.067L116.312 276.126Z" fill="#FFBE9D"/>
<path d="M69.5194 148.287C69.5194 148.287 69.2964 148.607 68.9342 149.182C66.8257 152.53 60.8921 164.538 65.8918 172.571L78.4411 161.539L80.5616 156.582" fill="#FFBE9D"/>
<path d="M76.7534 239.075L72.5273 317.408L85.4429 320.528L95.1264 240.727L76.7534 239.075Z" fill="#FFBE9D"/>
<path d="M133.805 140.567L115.598 144.96L114.547 159.005L117.082 167.013C117.051 167.303 121.176 180.772 121.176 180.772L122.454 185.227L80.8418 185.659C80.7029 180.796 83.9381 176.001 83.9381 176.001C86.3056 171.986 85.6933 165.924 84.5913 161.322C84.2426 159.866 83.7801 157.466 83.5957 155.98L83.5639 155.724L81.1823 159.913L66.7344 149.483C71.4258 140.434 78.3096 131.284 79.1383 130.603C82.1521 128.096 85.9394 126.708 89.8592 126.672L107.824 126.825C107.824 126.825 121.966 125.053 130.211 123.661L133.805 140.567Z" fill="#FFAF48"/>
<path d="M130.567 125.68C129.898 126.064 129.269 126.512 128.687 127.018C128.127 127.508 127.502 128.172 126.78 128.952C125.975 129.859 125.084 130.686 124.119 131.419C121.556 133.312 118.513 134.444 115.337 134.687C113.465 134.831 111.583 134.654 109.772 134.163C107.891 133.653 106.068 132.816 104.124 132.266C103.173 131.984 102.19 131.821 101.199 131.779C100.238 131.769 99.2789 131.881 98.3459 132.113C96.5786 132.617 94.8673 133.3 93.2387 134.151C91.7436 134.922 90.2017 135.599 88.622 136.177C86.9177 136.783 85.1083 137.04 83.3025 136.93C81.4967 136.821 79.7315 136.348 78.1129 135.54C77.5961 135.282 77.099 134.987 76.6254 134.657C76.4566 134.547 76.2982 134.422 76.1523 134.283C76.1787 134.242 76.8315 134.768 78.1824 135.396C80.091 136.279 82.177 136.713 84.2797 136.663C85.7243 136.622 87.1529 136.349 88.5106 135.854C90.0711 135.266 91.5943 134.583 93.072 133.81C94.7205 132.937 96.4554 132.237 98.2486 131.721C99.2165 131.478 100.212 131.359 101.21 131.369C102.235 131.41 103.252 131.578 104.236 131.869C106.222 132.433 108.041 133.271 109.879 133.774C111.646 134.257 113.482 134.438 115.309 134.309C118.421 134.087 121.412 133.005 123.946 131.184C124.908 130.473 125.801 129.673 126.613 128.793C127.234 128.125 127.892 127.492 128.583 126.897C129.023 126.521 129.503 126.193 130.013 125.92C130.145 125.848 130.282 125.784 130.421 125.729C130.515 125.69 130.564 125.673 130.567 125.68Z" fill="#263238"/>
<path d="M114.685 149.307C114.583 149.441 114.461 149.558 114.323 149.656C113.93 149.946 113.476 150.142 112.995 150.229C112.234 150.362 111.453 150.322 110.709 150.112C109.735 149.823 108.816 149.376 107.987 148.788C107.011 148.084 105.982 147.456 104.91 146.909C103.654 146.363 102.289 146.114 100.921 146.182C98.004 146.272 94.9718 147.5 91.8698 148.841C90.347 149.507 88.7748 150.054 87.1673 150.477C85.6538 150.88 84.0776 150.992 82.5221 150.808C81.1135 150.611 79.7648 150.11 78.5696 149.339C77.5348 148.678 76.5909 147.885 75.762 146.98C74.5867 145.664 73.5456 144.234 72.654 142.711C72.3317 142.178 72.0906 141.76 71.9305 141.474C71.8391 141.334 71.7635 141.183 71.7051 141.027C71.8182 141.15 71.9176 141.285 72.0013 141.43C72.2055 141.74 72.4667 142.136 72.7894 142.625C73.7257 144.102 74.7914 145.492 75.9739 146.78C76.7985 147.651 77.7313 148.414 78.7496 149.049C79.9095 149.779 81.2134 150.251 82.5724 150.432C84.0805 150.599 85.6065 150.481 87.0712 150.085C88.6568 149.661 90.208 149.119 91.7114 148.461C94.8052 147.125 97.898 145.876 100.91 145.803C102.334 145.743 103.752 146.015 105.052 146.598C106.134 147.164 107.17 147.815 108.149 148.545C108.945 149.131 109.83 149.585 110.77 149.89C111.481 150.109 112.231 150.171 112.968 150.071C113.595 149.965 114.186 149.702 114.685 149.307Z" fill="#263238"/>
<path d="M115.294 162.752C115.305 162.761 115.234 162.849 115.088 163.007C114.874 163.238 114.637 163.446 114.379 163.627C113.411 164.282 112.291 164.677 111.126 164.774C109.405 164.918 107.674 164.684 106.053 164.088C104.221 163.463 102.349 162.468 100.318 161.642C98.4359 160.813 96.3919 160.416 94.3365 160.482C92.6601 160.566 91.0143 160.964 89.484 161.653C88.0845 162.326 86.7865 163.193 85.6279 164.227C85.6177 164.217 85.6875 164.129 85.8305 163.97C86.0367 163.734 86.258 163.513 86.4932 163.307C87.3532 162.535 88.3187 161.889 89.3606 161.389C90.9138 160.643 92.5972 160.206 94.3172 160.103C96.4301 160.013 98.5357 160.408 100.472 161.26C102.533 162.099 104.389 163.098 106.18 163.73C107.748 164.325 109.425 164.583 111.1 164.484C112.228 164.415 113.322 164.076 114.29 163.494C114.962 163.061 115.263 162.719 115.294 162.752Z" fill="#263238"/>
<path d="M119.746 175.678C119.72 175.713 119.323 175.386 118.51 174.97C117.349 174.408 116.091 174.074 114.805 173.985C112.894 173.865 110.977 174.074 109.137 174.604C107.043 175.156 104.822 176.053 102.412 176.812C100.146 177.571 97.7694 177.945 95.3799 177.919C93.4312 177.886 91.4975 177.569 89.6399 176.979C88.3902 176.588 87.185 176.066 86.0442 175.423C85.6381 175.201 85.3397 175 85.1379 174.864C85.0287 174.804 84.9289 174.728 84.8418 174.639C84.8622 174.605 85.2972 174.873 86.1196 175.281C87.276 175.862 88.4827 176.337 89.7249 176.701C91.5635 177.241 93.4685 177.524 95.385 177.539C97.7321 177.543 100.064 177.164 102.29 176.418C104.675 175.668 106.912 174.777 109.04 174.236C110.923 173.713 112.884 173.529 114.832 173.695C116.147 173.811 117.425 174.197 118.585 174.828C118.897 175.003 119.193 175.203 119.471 175.427C119.66 175.581 119.755 175.667 119.746 175.678Z" fill="#263238"/>
<path d="M80.9081 184.094L72.9316 275.569L92.6398 275.686L102.379 202.374L115.092 276.35L134.812 272.711L122.727 184.864L80.9081 184.094Z" fill="#263238"/>
<path d="M116.495 199.981C116.508 200.094 109.751 200.988 101.404 201.977C93.0546 202.967 86.2771 203.678 86.2637 203.565C86.2502 203.452 93.0061 202.558 101.356 201.568C109.703 200.579 116.482 199.868 116.495 199.981Z" fill="#455A64"/>
<path d="M141.172 323.043L141.117 321.576L126.258 322.005L126.386 326.843L127.305 326.873C131.394 326.974 148.101 327.119 150.806 326.276C153.822 325.336 141.172 323.043 141.172 323.043Z" fill="#E0E0E0"/>
<g opacity="0.6">
<path opacity="0.6" d="M131.747 326.59C131.477 325.413 130.77 324.383 129.768 323.709C128.748 323.005 127.513 322.684 126.279 322.802L126.396 326.646L131.747 326.59Z" fill="white"/>
</g>
<g opacity="0.6">
<path opacity="0.6" d="M147.36 324.367C147.36 324.367 151.802 325.43 151.273 326.119C150.745 326.809 133.855 327.253 126.387 326.842L126.401 326.535L146.106 326.173C146.106 326.173 146.5 324.424 147.36 324.367Z" fill="white"/>
</g>
<path d="M126.168 326.532C126.252 326.546 126.338 326.552 126.423 326.551C126.643 326.558 126.883 326.565 127.155 326.573C127.886 326.583 128.785 326.595 129.847 326.61C132.12 326.626 135.261 326.61 138.728 326.521C142.196 326.432 145.334 326.288 147.602 326.155C148.661 326.087 149.558 326.028 150.288 325.981C150.558 325.959 150.798 325.94 151.017 325.922C151.102 325.919 151.187 325.908 151.27 325.89C151.185 325.882 151.1 325.881 151.015 325.888C150.795 325.897 150.555 325.906 150.284 325.916C149.553 325.949 148.655 325.99 147.596 326.038C145.326 326.14 142.189 326.266 138.723 326.355C135.258 326.443 132.119 326.478 129.847 326.492C128.786 326.498 127.887 326.504 127.155 326.508C126.884 326.511 126.643 326.515 126.423 326.518C126.338 326.515 126.253 326.52 126.168 326.532Z" fill="#263238"/>
<path d="M146.109 326.387C146.215 325.967 146.371 325.562 146.575 325.18C146.832 324.82 147.13 324.491 147.462 324.199C147.017 324.363 146.647 324.682 146.419 325.097C146.149 325.469 146.038 325.933 146.109 326.387Z" fill="#263238"/>
<path d="M141.682 324.443C141.724 324.466 141.926 324.224 142.132 323.903C142.338 323.581 142.471 323.301 142.428 323.277C142.386 323.254 142.184 323.496 141.978 323.817C141.772 324.139 141.639 324.419 141.682 324.443Z" fill="#263238"/>
<path d="M140.465 323.885C140.499 323.919 140.728 323.767 140.977 323.548C141.225 323.328 141.399 323.123 141.365 323.09C141.331 323.057 141.101 323.208 140.853 323.427C140.605 323.647 140.431 323.852 140.465 323.885Z" fill="#263238"/>
<path d="M139.67 322.607C140.181 322.71 140.708 322.702 141.216 322.583C140.705 322.48 140.178 322.488 139.67 322.607Z" fill="#263238"/>
<path d="M139.381 321.698C139.644 321.851 139.946 321.924 140.249 321.909C140.551 321.95 140.859 321.903 141.135 321.775C140.55 321.757 139.965 321.731 139.381 321.698Z" fill="#263238"/>
<path d="M142.146 323.23C142.463 323.271 142.784 323.261 143.097 323.199C143.438 323.15 143.775 323.072 144.103 322.965C144.301 322.907 144.493 322.827 144.675 322.728C144.784 322.667 144.865 322.567 144.902 322.447C144.915 322.38 144.906 322.311 144.879 322.248C144.851 322.186 144.805 322.134 144.747 322.098C144.381 321.94 143.974 321.906 143.587 322.002C143.2 322.098 142.856 322.318 142.606 322.628C142.466 322.804 142.366 323.008 142.314 323.226C142.28 323.378 142.286 323.465 142.296 323.466C142.386 323.188 142.525 322.929 142.706 322.7C142.919 322.458 143.195 322.281 143.504 322.189C143.874 322.061 144.279 322.076 144.639 322.23C144.793 322.33 144.739 322.497 144.574 322.594C144.406 322.687 144.229 322.763 144.046 322.821C143.729 322.932 143.404 323.019 143.074 323.083C142.508 323.192 142.145 323.202 142.146 323.23Z" fill="#263238"/>
<path d="M142.394 323.267C142.504 323.081 142.537 322.86 142.485 322.65C142.448 322.417 142.352 322.197 142.206 322.012C142.117 321.879 141.998 321.771 141.857 321.696C141.717 321.621 141.56 321.582 141.401 321.582C141.355 321.59 141.311 321.608 141.272 321.633C141.233 321.659 141.2 321.692 141.173 321.731C141.147 321.77 141.129 321.813 141.12 321.859C141.111 321.905 141.111 321.952 141.12 321.998C141.147 322.14 141.207 322.273 141.294 322.388C141.426 322.582 141.582 322.758 141.759 322.911C141.914 323.068 142.104 323.186 142.314 323.255C142.33 323.233 142.12 323.101 141.849 322.828C141.693 322.67 141.554 322.496 141.435 322.308C141.299 322.125 141.199 321.792 141.437 321.745C141.563 321.755 141.685 321.792 141.795 321.854C141.905 321.916 142.001 322.001 142.074 322.104C142.211 322.269 142.309 322.463 142.36 322.672C142.391 322.868 142.403 323.068 142.394 323.267Z" fill="#263238"/>
<path d="M126.357 322.761C126.362 322.792 126.78 322.713 127.451 322.768C128.315 322.838 129.146 323.131 129.863 323.619C130.549 324.101 131.086 324.766 131.413 325.538C131.656 326.121 131.69 326.517 131.723 326.512C131.738 326.42 131.736 326.326 131.715 326.235C131.682 325.983 131.62 325.735 131.532 325.497C131.228 324.684 130.683 323.982 129.971 323.486C129.228 322.978 128.358 322.688 127.459 322.651C127.188 322.638 126.915 322.651 126.646 322.691C126.547 322.699 126.449 322.722 126.357 322.761Z" fill="#263238"/>
<path d="M133.568 325.201C135.004 325.416 136.465 325.39 137.892 325.125C137.886 325.077 136.922 325.157 135.731 325.177C134.54 325.199 133.573 325.152 133.568 325.201Z" fill="#263238"/>
<path d="M130.668 325.273C130.633 325.307 130.753 325.461 130.858 325.665C130.966 325.867 131.022 326.049 131.073 326.045C131.121 326.043 131.143 325.826 131.019 325.592C130.897 325.357 130.699 325.239 130.668 325.273Z" fill="#263238"/>
<path d="M129.538 324.037C129.504 324.071 129.604 324.211 129.761 324.351C129.918 324.492 130.074 324.578 130.108 324.545C130.142 324.512 130.043 324.371 129.885 324.231C129.728 324.091 129.572 324.004 129.538 324.037Z" fill="#263238"/>
<path d="M127.956 323.501C127.968 323.547 128.164 323.54 128.384 323.606C128.605 323.667 128.763 323.775 128.801 323.743C128.84 323.716 128.709 323.524 128.436 323.447C128.164 323.368 127.94 323.459 127.956 323.501Z" fill="#263238"/>
<path d="M126.836 323.258C126.819 323.301 126.907 323.369 127.031 323.41C127.155 323.452 127.269 323.45 127.285 323.406C127.302 323.363 127.215 323.294 127.091 323.253C126.967 323.212 126.853 323.214 126.836 323.258Z" fill="#263238"/>
<path d="M72.1427 316.738L69.9434 326.413H84.8066L85.4428 320.115L72.1427 316.738Z" fill="#E0E0E0"/>
<path d="M85.1098 325.008C84.3942 325.125 83.6685 325.166 82.9443 325.132C81.6061 325.147 79.7582 325.111 77.7205 325.036C75.7561 324.953 73.9794 324.877 72.5053 324.815C71.7817 324.821 71.059 324.763 70.3457 324.641C71.0616 324.527 71.7873 324.488 72.5113 324.523C73.8494 324.512 75.6973 324.549 77.7354 324.624C79.6992 324.706 81.4756 324.78 82.9496 324.841C83.6732 324.833 84.396 324.889 85.1098 325.008Z" fill="#263238"/>
<path d="M78.8133 318.624C78.948 320.713 78.8067 322.81 78.3931 324.862C78.2584 322.773 78.3997 320.676 78.8133 318.624Z" fill="#263238"/>
<path opacity="0.6" d="M69.9434 326.413H84.8066L84.949 325.009L70.2116 324.641L69.9434 326.246" fill="white"/>
<path d="M165.073 93.0912L159.652 95.0467C159.574 92.8759 158.098 90.6144 158.098 91.7019C158.098 92.7895 157.586 98.3914 157.586 98.3914L146.279 118.061C144.707 121.194 141.875 123.019 139.839 123.343L130.566 125.329L133.172 137.587L146.094 134.396C147.748 133.988 149.282 133.197 150.575 132.089C151.868 130.98 152.883 129.584 153.538 128.012L164.289 102.242C165.004 100.583 165.609 98.8783 166.1 97.1398C166.228 96.4307 166.202 95.7025 166.025 95.0041C165.848 94.3057 165.523 93.6534 165.073 93.0912Z" fill="#FFBE9D"/>
</svg>
